<svg xmlns="http://www.w3.org/2000/svg" width="1896" height="456" viewBox="-12 -32 948 228" role="img" aria-label="Quickler Global Asbestos Awareness Week logo"><defs><filter id="ds" x="-5%" y="-10%" width="110%" height="130%"><feDropShadow dx="0" dy="2" stdDeviation="1.6" flood-color="#1b1030" flood-opacity=".22"/></filter><linearGradient id="shine" x1="0" y1="0" x2="0" y2="1"><stop stop-color="#fff" stop-opacity=".28"/><stop offset=".45" stop-color="#fff" stop-opacity="0"/><stop offset="1" stop-color="#000" stop-opacity=".10"/></linearGradient></defs><rect x="-10" y="-30" width="944" height="224" rx="56" fill="#FFFFFF"/><g filter="url(#ds)"><path d="M105.124 189.3L104.706 139.535H102.198C100.387 142.879 97.809 146.153 94.465 149.358C91.2603 152.563 87.0803 155.21 81.925 157.3C76.7697 159.251 70.43 160.226 62.906 160.226C53.8493 160.226 45.559 158.136 38.035 153.956C30.6503 149.637 24.7983 143.576 20.479 135.773C16.1597 127.831 14 118.496 14 107.767V105.259C14 94.391 16.1597 85.0557 20.479 77.253C24.9377 69.4503 30.8593 63.459 38.244 59.279C45.6287 54.9597 53.8493 52.8 62.906 52.8C74.0527 52.8 82.6913 55.0294 88.822 59.488C95.092 63.8074 99.69 68.7537 102.616 74.327H105.124V55.726H117.246V189.3H105.124ZM65.832 148.94C77.3967 148.94 86.732 145.248 93.838 137.863C101.083 130.478 104.706 120.307 104.706 107.349V105.677C104.706 92.719 101.083 82.5477 93.838 75.163C86.732 67.7784 77.3967 64.086 65.832 64.086C54.4067 64.086 45.0713 67.7784 37.826 75.163C30.5807 82.5477 26.958 92.719 26.958 105.677V107.349C26.958 120.307 30.5807 130.478 37.826 137.863C45.0713 145.248 54.4067 148.94 65.832 148.94Z" fill="#455A64" /><path d="M199.484 159.39C192.239 159.39 185.481 157.857 179.211 154.792C173.081 151.727 168.134 147.129 164.372 140.998C160.75 134.728 158.938 126.925 158.938 117.59V55.726H171.478V116.754C171.478 127.761 174.265 135.773 179.838 140.789C185.412 145.666 192.866 148.104 202.201 148.104C212.651 148.104 221.36 144.69 228.326 137.863C235.293 130.896 238.776 120.446 238.776 106.513V55.726H251.316V157.3H239.194V138.49H236.686C234.178 143.924 230.068 148.801 224.355 153.12C218.643 157.3 210.352 159.39 199.484 159.39Z" fill="#F57C00" /><path d="M294.439 157.3V55.726H306.979V157.3H294.439Z" fill="#455A64" /><path d="M396.499 160.226C386.607 160.226 377.759 158.136 369.956 153.956C362.293 149.637 356.232 143.506 351.773 135.564C347.315 127.622 345.085 118.287 345.085 107.558V105.468C345.085 94.6 347.315 85.2647 351.773 77.462C356.232 69.52 362.293 63.459 369.956 59.279C377.759 54.9597 386.607 52.8 396.499 52.8C406.253 52.8 414.473 54.681 421.161 58.443C427.989 62.0657 433.283 66.8727 437.045 72.864C440.947 78.716 443.385 84.9163 444.36 91.465L432.029 93.973C431.333 88.539 429.591 83.5927 426.804 79.134C424.018 74.536 420.116 70.9134 415.1 68.266C410.084 65.4794 403.884 64.086 396.499 64.086C389.115 64.086 382.496 65.8277 376.644 69.311C370.792 72.655 366.125 77.462 362.641 83.732C359.297 89.8627 357.625 97.1777 357.625 105.677V107.349C357.625 115.848 359.297 123.233 362.641 129.503C366.125 135.634 370.792 140.441 376.644 143.924C382.496 147.268 389.115 148.94 396.499 148.94C407.646 148.94 416.145 146.084 421.997 140.371C427.849 134.519 431.472 127.413 432.865 119.053L445.196 121.561C443.942 128.11 441.295 134.38 437.254 140.371C433.353 146.223 427.989 151.03 421.161 154.792C414.473 158.415 406.253 160.226 396.499 160.226Z" fill="#F57C00" /><path d="M482.302 157.3V11H494.842V99.198H497.35L549.391 55.726H567.783L507.591 105.259L569.455 157.3H551.272L497.35 111.529H494.842V157.3H482.302Z" fill="#455A64" /><path d="M598.787 157.3V11H611.327V157.3Z" fill="#F57C00" /><path d="M701.266 160.226C690.816 160.226 681.689 158.066 673.886 153.747C666.223 149.288 660.232 143.088 655.912 135.146C651.593 127.204 649.433 118.078 649.433 107.767V105.259C649.433 94.809 651.593 85.6827 655.912 77.88C660.232 69.938 666.153 63.8074 673.677 59.488C681.341 55.0294 690.049 52.8 699.802 52.8C709.277 52.8 717.637 54.8204 724.883 58.861C732.267 62.7623 738.049 68.475 742.229 75.999C746.409 83.3837 748.5 92.2313 748.5 102.542V109.23H661.974C662.392 121.909 666.223 131.732 673.469 138.699C680.853 145.526 690.119 148.94 701.266 148.94C710.74 148.94 718.055 146.78 723.211 142.461C728.505 138.142 732.546 132.847 735.333 126.577L746.619 131.593C744.529 136.191 741.603 140.719 737.841 145.178C734.218 149.497 729.48 153.12 723.628 156.046C717.776 158.833 710.322 160.226 701.266 160.226ZM662.182 98.362H735.75C735.193 87.3547 731.64 78.925 725.091 73.073C718.543 67.0817 710.113 64.086 699.802 64.086C689.631 64.086 681.201 67.0817 674.513 73.073C667.825 78.925 663.715 87.3547 662.182 98.362Z" fill="#455A64" /><path d="M785.63 157.3V55.726H797.752V68.475H800.26C802.21 63.877 805.067 60.533 808.829 58.443C812.73 56.353 818.094 55.308 824.922 55.308H836.835V67.012H823.459C815.795 67.012 809.665 69.1717 805.067 73.491C800.469 77.8103 798.17 84.568 798.17 93.764V157.3H785.63Z" fill="#F57C00" /><path d="M105.124 189.3L104.706 139.535H102.198C100.387 142.879 97.809 146.153 94.465 149.358C91.2603 152.563 87.0803 155.21 81.925 157.3C76.7697 159.251 70.43 160.226 62.906 160.226C53.8493 160.226 45.559 158.136 38.035 153.956C30.6503 149.637 24.7983 143.576 20.479 135.773C16.1597 127.831 14 118.496 14 107.767V105.259C14 94.391 16.1597 85.0557 20.479 77.253C24.9377 69.4503 30.8593 63.459 38.244 59.279C45.6287 54.9597 53.8493 52.8 62.906 52.8C74.0527 52.8 82.6913 55.0294 88.822 59.488C95.092 63.8074 99.69 68.7537 102.616 74.327H105.124V55.726H117.246V189.3H105.124ZM65.832 148.94C77.3967 148.94 86.732 145.248 93.838 137.863C101.083 130.478 104.706 120.307 104.706 107.349V105.677C104.706 92.719 101.083 82.5477 93.838 75.163C86.732 67.7784 77.3967 64.086 65.832 64.086C54.4067 64.086 45.0713 67.7784 37.826 75.163C30.5807 82.5477 26.958 92.719 26.958 105.677V107.349C26.958 120.307 30.5807 130.478 37.826 137.863C45.0713 145.248 54.4067 148.94 65.832 148.94Z" fill="url(#shine)"/><path d="M199.484 159.39C192.239 159.39 185.481 157.857 179.211 154.792C173.081 151.727 168.134 147.129 164.372 140.998C160.75 134.728 158.938 126.925 158.938 117.59V55.726H171.478V116.754C171.478 127.761 174.265 135.773 179.838 140.789C185.412 145.666 192.866 148.104 202.201 148.104C212.651 148.104 221.36 144.69 228.326 137.863C235.293 130.896 238.776 120.446 238.776 106.513V55.726H251.316V157.3H239.194V138.49H236.686C234.178 143.924 230.068 148.801 224.355 153.12C218.643 157.3 210.352 159.39 199.484 159.39Z" fill="url(#shine)"/><path d="M294.439 157.3V55.726H306.979V157.3H294.439Z" fill="url(#shine)"/><path d="M396.499 160.226C386.607 160.226 377.759 158.136 369.956 153.956C362.293 149.637 356.232 143.506 351.773 135.564C347.315 127.622 345.085 118.287 345.085 107.558V105.468C345.085 94.6 347.315 85.2647 351.773 77.462C356.232 69.52 362.293 63.459 369.956 59.279C377.759 54.9597 386.607 52.8 396.499 52.8C406.253 52.8 414.473 54.681 421.161 58.443C427.989 62.0657 433.283 66.8727 437.045 72.864C440.947 78.716 443.385 84.9163 444.36 91.465L432.029 93.973C431.333 88.539 429.591 83.5927 426.804 79.134C424.018 74.536 420.116 70.9134 415.1 68.266C410.084 65.4794 403.884 64.086 396.499 64.086C389.115 64.086 382.496 65.8277 376.644 69.311C370.792 72.655 366.125 77.462 362.641 83.732C359.297 89.8627 357.625 97.1777 357.625 105.677V107.349C357.625 115.848 359.297 123.233 362.641 129.503C366.125 135.634 370.792 140.441 376.644 143.924C382.496 147.268 389.115 148.94 396.499 148.94C407.646 148.94 416.145 146.084 421.997 140.371C427.849 134.519 431.472 127.413 432.865 119.053L445.196 121.561C443.942 128.11 441.295 134.38 437.254 140.371C433.353 146.223 427.989 151.03 421.161 154.792C414.473 158.415 406.253 160.226 396.499 160.226Z" fill="url(#shine)"/><path d="M482.302 157.3V11H494.842V99.198H497.35L549.391 55.726H567.783L507.591 105.259L569.455 157.3H551.272L497.35 111.529H494.842V157.3H482.302Z" fill="url(#shine)"/><path d="M598.787 157.3V11H611.327V157.3Z" fill="url(#shine)"/><path d="M701.266 160.226C690.816 160.226 681.689 158.066 673.886 153.747C666.223 149.288 660.232 143.088 655.912 135.146C651.593 127.204 649.433 118.078 649.433 107.767V105.259C649.433 94.809 651.593 85.6827 655.912 77.88C660.232 69.938 666.153 63.8074 673.677 59.488C681.341 55.0294 690.049 52.8 699.802 52.8C709.277 52.8 717.637 54.8204 724.883 58.861C732.267 62.7623 738.049 68.475 742.229 75.999C746.409 83.3837 748.5 92.2313 748.5 102.542V109.23H661.974C662.392 121.909 666.223 131.732 673.469 138.699C680.853 145.526 690.119 148.94 701.266 148.94C710.74 148.94 718.055 146.78 723.211 142.461C728.505 138.142 732.546 132.847 735.333 126.577L746.619 131.593C744.529 136.191 741.603 140.719 737.841 145.178C734.218 149.497 729.48 153.12 723.628 156.046C717.776 158.833 710.322 160.226 701.266 160.226ZM662.182 98.362H735.75C735.193 87.3547 731.64 78.925 725.091 73.073C718.543 67.0817 710.113 64.086 699.802 64.086C689.631 64.086 681.201 67.0817 674.513 73.073C667.825 78.925 663.715 87.3547 662.182 98.362Z" fill="url(#shine)"/><path d="M785.63 157.3V55.726H797.752V68.475H800.26C802.21 63.877 805.067 60.533 808.829 58.443C812.73 56.353 818.094 55.308 824.922 55.308H836.835V67.012H823.459C815.795 67.012 809.665 69.1717 805.067 73.491C800.469 77.8103 798.17 84.568 798.17 93.764V157.3H785.63Z" fill="url(#shine)"/><circle cx="65.8" cy="107" r="33.5" fill="#F6C9A0" stroke="#B07A50" stroke-width="1.4" stroke-linejoin="round" stroke-linecap="round"/><ellipse cx="56.2" cy="96.0" rx="3.6" ry="4.6" fill="#2B2233"/><ellipse cx="75.4" cy="96.0" rx="3.6" ry="4.6" fill="#2B2233"/><circle cx="57.4" cy="94.1" r="1.32" fill="#fff"/><circle cx="76.6" cy="94.1" r="1.32" fill="#fff"/><path d="M44 108 Q66 98 88 108 L84 128 Q66 140 48 128Z" fill="#CFD8DC" stroke="#2B2233" stroke-width="1.5" stroke-linejoin="round" stroke-linecap="round"/><circle cx="42" cy="122" r="9" fill="#EC407A" stroke="#2B2233" stroke-width="1.5" stroke-linejoin="round" stroke-linecap="round"/><circle cx="90" cy="122" r="9" fill="#EC407A" stroke="#2B2233" stroke-width="1.5" stroke-linejoin="round" stroke-linecap="round"/>
<circle cx="42" cy="122" r="4.5" fill="none" stroke="#AD1457" stroke-width="1.2"/><circle cx="90" cy="122" r="4.5" fill="none" stroke="#AD1457" stroke-width="1.2"/><path d="M58 126 H74" stroke="#90A4AE" stroke-width="2.4" stroke-linecap="round"/>
<path d="M33 112 L36 104 M99 112 L96 104" stroke="#2B2233" stroke-width="1.4"/><g transform="rotate(-6 66 52)"><path d="M26 64 C28 34 48 22 66 22 C84 22 104 34 106 64Z" fill="#FAFAFA" stroke="#2B2233" stroke-width="1.6" stroke-linejoin="round" stroke-linecap="round"/><path d="M66 22 V62" stroke="#E0E0E0" stroke-width="8"/>
<rect x="14" y="60" width="104" height="9" rx="4.5" fill="#FAFAFA" stroke="#2B2233" stroke-width="1.6" stroke-linejoin="round" stroke-linecap="round"/><path d="M40 36 Q50 28 60 27" stroke="#fff" stroke-width="3" opacity=".5" fill="none" stroke-linecap="round"/></g><circle cx="298" cy="24" r="10" fill="#E1F5FE" fill-opacity=".8" stroke="#2B2233" stroke-width="2.4" stroke-linejoin="round" stroke-linecap="round"/><path d="M305 31 L313 40" stroke="#2B2233" stroke-width="5" stroke-linecap="round"/><path d="M305 31 L313 40" stroke="#6D4C41" stroke-width="3" stroke-linecap="round"/><path d="M292 20 Q295 16 299 16" stroke="#fff" stroke-width="2" fill="none"/><g transform="translate(856 92) rotate(6)"><rect width="50" height="64" rx="4" fill="#A1887F" stroke="#2B2233" stroke-width="1.6" stroke-linejoin="round" stroke-linecap="round"/><rect x="5" y="9" width="40" height="51" rx="2" fill="#fff" stroke="#2B2233" stroke-width="1.2" stroke-linejoin="round" stroke-linecap="round"/><rect x="15" y="-4" width="20" height="10" rx="3" fill="#90A4AE" stroke="#2B2233" stroke-width="1.3" stroke-linejoin="round" stroke-linecap="round"/>
<path d="M10 20 l3 3 l6 -7 M10 34 l3 3 l6 -7 M10 48 l3 3 l6 -7" stroke="#2E7D32" stroke-width="2.2" fill="none" stroke-linecap="round"/><path d="M24 20 H40 M24 34 H40 M24 48 H36" stroke="#90A4AE" stroke-width="2" stroke-linecap="round"/></g></g></svg>