<svg width="1200" height="1600" viewBox="0 0 1200 1600" fill="none" xmlns="http://www.w3.org/2000/svg">
  <rect width="1200" height="1600" fill="#E9EFFD"/>
  <rect x="86" y="72" width="1028" height="1456" rx="28" fill="#FFFFFF"/>
  <rect x="86" y="72" width="1028" height="1456" rx="28" stroke="#D7E0F8" stroke-width="4"/>
  <text x="140" y="182" fill="#0C1734" font-size="42" font-family="Arial, Helvetica, sans-serif" font-weight="700">PURCHASE ORDER</text>
  <text x="140" y="228" fill="#67789E" font-size="22" font-family="Arial, Helvetica, sans-serif">Bosonic Systems Ltd</text>
  <text x="822" y="164" fill="#1A52D0" font-size="28" font-family="Arial, Helvetica, sans-serif" font-weight="700">PO-2602-004</text>
  <text x="822" y="202" fill="#67789E" font-size="20" font-family="Arial, Helvetica, sans-serif">14 February 2026</text>

  <rect x="140" y="286" width="420" height="170" rx="20" fill="#F6F9FF"/>
  <rect x="140" y="286" width="420" height="170" rx="20" stroke="#E1E8FA" stroke-width="3"/>
  <text x="172" y="332" fill="#67789E" font-size="18" font-family="Arial, Helvetica, sans-serif" font-weight="700">VENDOR</text>
  <text x="172" y="378" fill="#0C1734" font-size="28" font-family="Arial, Helvetica, sans-serif" font-weight="700">Quantum Parts Ltd</text>
  <text x="172" y="416" fill="#213055" font-size="20" font-family="Arial, Helvetica, sans-serif">8 Roslin Park</text>
  <text x="172" y="446" fill="#213055" font-size="20" font-family="Arial, Helvetica, sans-serif">Cambridge CB4 1XZ</text>

  <rect x="596" y="286" width="378" height="170" rx="20" fill="#F6F9FF"/>
  <rect x="596" y="286" width="378" height="170" rx="20" stroke="#E1E8FA" stroke-width="3"/>
  <text x="628" y="332" fill="#67789E" font-size="18" font-family="Arial, Helvetica, sans-serif" font-weight="700">APPROVER</text>
  <text x="628" y="378" fill="#0C1734" font-size="28" font-family="Arial, Helvetica, sans-serif" font-weight="700">Sam Snowden</text>
  <text x="628" y="416" fill="#213055" font-size="20" font-family="Arial, Helvetica, sans-serif">CEO</text>
  <rect x="628" y="430" width="136" height="34" rx="17" fill="#E7F7ED"/>
  <text x="661" y="452" fill="#1E824C" font-size="16" font-family="Arial, Helvetica, sans-serif" font-weight="700">APPROVED</text>

  <text x="140" y="552" fill="#67789E" font-size="18" font-family="Arial, Helvetica, sans-serif" font-weight="700">LINE ITEMS</text>
  <rect x="140" y="580" width="920" height="70" rx="16" fill="#F6F9FF"/>
  <text x="172" y="622" fill="#67789E" font-size="18" font-family="Arial, Helvetica, sans-serif" font-weight="700">DESCRIPTION</text>
  <text x="706" y="622" fill="#67789E" font-size="18" font-family="Arial, Helvetica, sans-serif" font-weight="700">QTY</text>
  <text x="804" y="622" fill="#67789E" font-size="18" font-family="Arial, Helvetica, sans-serif" font-weight="700">UNIT</text>
  <text x="928" y="622" fill="#67789E" font-size="18" font-family="Arial, Helvetica, sans-serif" font-weight="700">TOTAL</text>

  <rect x="140" y="664" width="920" height="94" rx="18" fill="#FFFFFF"/>
  <rect x="140" y="664" width="920" height="94" rx="18" stroke="#E6ECFB" stroke-width="2"/>
  <text x="172" y="714" fill="#0C1734" font-size="24" font-family="Arial, Helvetica, sans-serif" font-weight="700">Cryogenic fittings and hose assembly</text>
  <text x="172" y="744" fill="#67789E" font-size="18" font-family="Arial, Helvetica, sans-serif">Lead time confirmed. For test rig build.</text>
  <text x="720" y="724" fill="#213055" font-size="24" font-family="Arial, Helvetica, sans-serif">4</text>
  <text x="804" y="724" fill="#213055" font-size="24" font-family="Arial, Helvetica, sans-serif">£186.00</text>
  <text x="928" y="724" fill="#0C1734" font-size="24" font-family="Arial, Helvetica, sans-serif" font-weight="700">£744.00</text>

  <rect x="140" y="776" width="920" height="94" rx="18" fill="#FFFFFF"/>
  <rect x="140" y="776" width="920" height="94" rx="18" stroke="#E6ECFB" stroke-width="2"/>
  <text x="172" y="826" fill="#0C1734" font-size="24" font-family="Arial, Helvetica, sans-serif" font-weight="700">Shielded cable set</text>
  <text x="172" y="856" fill="#67789E" font-size="18" font-family="Arial, Helvetica, sans-serif">Prepared for March integration work.</text>
  <text x="720" y="836" fill="#213055" font-size="24" font-family="Arial, Helvetica, sans-serif">2</text>
  <text x="804" y="836" fill="#213055" font-size="24" font-family="Arial, Helvetica, sans-serif">£128.50</text>
  <text x="928" y="836" fill="#0C1734" font-size="24" font-family="Arial, Helvetica, sans-serif" font-weight="700">£257.00</text>

  <rect x="140" y="888" width="920" height="94" rx="18" fill="#FFFFFF"/>
  <rect x="140" y="888" width="920" height="94" rx="18" stroke="#E6ECFB" stroke-width="2"/>
  <text x="172" y="938" fill="#0C1734" font-size="24" font-family="Arial, Helvetica, sans-serif" font-weight="700">Shipping and handling</text>
  <text x="172" y="968" fill="#67789E" font-size="18" font-family="Arial, Helvetica, sans-serif">Standard courier service.</text>
  <text x="720" y="948" fill="#213055" font-size="24" font-family="Arial, Helvetica, sans-serif">1</text>
  <text x="804" y="948" fill="#213055" font-size="24" font-family="Arial, Helvetica, sans-serif">£42.00</text>
  <text x="928" y="948" fill="#0C1734" font-size="24" font-family="Arial, Helvetica, sans-serif" font-weight="700">£42.00</text>

  <rect x="700" y="1058" width="360" height="228" rx="24" fill="#F6F9FF"/>
  <rect x="700" y="1058" width="360" height="228" rx="24" stroke="#DCE5FA" stroke-width="3"/>
  <text x="736" y="1112" fill="#67789E" font-size="18" font-family="Arial, Helvetica, sans-serif" font-weight="700">SUBTOTAL</text>
  <text x="910" y="1112" fill="#0C1734" font-size="24" font-family="Arial, Helvetica, sans-serif" font-weight="700">£1,043.00</text>
  <text x="736" y="1162" fill="#67789E" font-size="18" font-family="Arial, Helvetica, sans-serif" font-weight="700">VAT</text>
  <text x="946" y="1162" fill="#213055" font-size="24" font-family="Arial, Helvetica, sans-serif">£208.60</text>
  <line x1="736" y1="1190" x2="1024" y2="1190" stroke="#D6DFF7" stroke-width="3"/>
  <text x="736" y="1252" fill="#1A52D0" font-size="22" font-family="Arial, Helvetica, sans-serif" font-weight="700">TOTAL</text>
  <text x="894" y="1252" fill="#1A52D0" font-size="34" font-family="Arial, Helvetica, sans-serif" font-weight="700">£1,251.60</text>

  <text x="140" y="1118" fill="#67789E" font-size="18" font-family="Arial, Helvetica, sans-serif" font-weight="700">NOTES</text>
  <text x="140" y="1162" fill="#213055" font-size="22" font-family="Arial, Helvetica, sans-serif">Approved for cold-chain test stand work.</text>
  <text x="140" y="1196" fill="#213055" font-size="22" font-family="Arial, Helvetica, sans-serif">PDF generated automatically and filed to Paperless.</text>

  <text x="140" y="1388" fill="#67789E" font-size="18" font-family="Arial, Helvetica, sans-serif" font-weight="700">SIGNATURE</text>
  <path d="M145 1452C178 1424 206 1408 228 1416C246 1422 250 1450 270 1453C293 1456 310 1410 342 1402C368 1396 383 1438 406 1441C428 1445 444 1415 470 1411" stroke="#1A52D0" stroke-width="7" stroke-linecap="round"/>
  <text x="140" y="1496" fill="#213055" font-size="18" font-family="Arial, Helvetica, sans-serif">Bosonic Systems Ltd · Generated from the PO workflow platform</text>
</svg>
