<svg width="1000" height="400" viewBox="0 0 1000 400" fill="none" xmlns="http://www.w3.org/2000/svg">
<rect width="1000" height="400" fill="#F5F5F5"/>
<path d="M860.63 263.3V161.726H872.752V174.475H875.26C877.21 169.877 880.067 166.533 883.829 164.443C887.73 162.353 893.094 161.308 899.922 161.308H911.835V173.012H898.459C890.795 173.012 884.665 175.172 880.067 179.491C875.469 183.81 873.17 190.568 873.17 199.764V263.3H860.63Z" fill="url(#paint0_linear_0_1)"/>
<path d="M776.266 266.226C765.816 266.226 756.689 264.066 748.886 259.747C741.223 255.288 735.232 249.088 730.912 241.146C726.593 233.204 724.433 224.078 724.433 213.767V211.259C724.433 200.809 726.593 191.683 730.912 183.88C735.232 175.938 741.153 169.807 748.677 165.488C756.341 161.029 765.049 158.8 774.802 158.8C784.277 158.8 792.637 160.82 799.883 164.861C807.267 168.762 813.049 174.475 817.229 181.999C821.409 189.384 823.5 198.231 823.5 208.542V215.23H736.974C737.392 227.909 741.223 237.732 748.469 244.699C755.853 251.526 765.119 254.94 776.266 254.94C785.74 254.94 793.055 252.78 798.211 248.461C803.505 244.142 807.546 238.847 810.333 232.577L821.619 237.593C819.529 242.191 816.603 246.719 812.841 251.178C809.218 255.497 804.48 259.12 798.628 262.046C792.776 264.833 785.322 266.226 776.266 266.226ZM737.182 204.362H810.75C810.193 193.355 806.64 184.925 800.091 179.073C793.543 173.082 785.113 170.086 774.802 170.086C764.631 170.086 756.201 173.082 749.513 179.073C742.825 184.925 738.715 193.355 737.182 204.362Z" fill="url(#paint1_linear_0_1)"/>
<path d="M673.787 263.3V117H686.327V263.3H673.787Z" fill="url(#paint2_linear_0_1)"/>
<path d="M557.302 263.3V117H569.842V205.198H572.35L624.391 161.726H642.783L582.591 211.259L644.455 263.3H626.272L572.35 217.529H569.842V263.3H557.302Z" fill="url(#paint3_linear_0_1)"/>
<path d="M471.499 266.226C461.607 266.226 452.759 264.136 444.956 259.956C437.293 255.637 431.232 249.506 426.773 241.564C422.315 233.622 420.085 224.287 420.085 213.558V211.468C420.085 200.6 422.315 191.265 426.773 183.462C431.232 175.52 437.293 169.459 444.956 165.279C452.759 160.96 461.607 158.8 471.499 158.8C481.253 158.8 489.473 160.681 496.161 164.443C502.989 168.066 508.283 172.873 512.045 178.864C515.947 184.716 518.385 190.916 519.36 197.465L507.029 199.973C506.333 194.539 504.591 189.593 501.804 185.134C499.018 180.536 495.116 176.913 490.1 174.266C485.084 171.479 478.884 170.086 471.499 170.086C464.115 170.086 457.496 171.828 451.644 175.311C445.792 178.655 441.125 183.462 437.641 189.732C434.297 195.863 432.625 203.178 432.625 211.677V213.349C432.625 221.848 434.297 229.233 437.641 235.503C441.125 241.634 445.792 246.441 451.644 249.924C457.496 253.268 464.115 254.94 471.499 254.94C482.646 254.94 491.145 252.084 496.997 246.371C502.849 240.519 506.472 233.413 507.865 225.053L520.196 227.561C518.942 234.11 516.295 240.38 512.254 246.371C508.353 252.223 502.989 257.03 496.161 260.792C489.473 264.415 481.253 266.226 471.499 266.226Z" fill="url(#paint4_linear_0_1)"/>
<path d="M369.439 263.3V161.726H381.979V263.3H369.439ZM375.709 144.17C372.643 144.17 373.073 144.17 370.006 144.17C370.006 141.3 370.006 138.365 370.006 135.3C370.006 132.095 370.006 127.3 370.006 124.8C373.073 124.8 372.643 124.8 375.709 124.8C378.913 124.8 378.533 124.8 381.506 124.8C381.506 128.8 381.506 132.595 381.506 135.8C381.506 138.865 381.506 141.3 381.506 144.17C378.533 144.17 378.913 144.17 375.709 144.17Z" fill="url(#paint5_linear_0_1)"/>
<path d="M274.484 265.39C267.239 265.39 260.481 263.857 254.211 260.792C248.081 257.727 243.134 253.129 239.372 246.998C235.75 240.728 233.938 232.925 233.938 223.59V161.726H246.478V222.754C246.478 233.761 249.265 241.773 254.838 246.789C260.412 251.666 267.866 254.104 277.201 254.104C287.651 254.104 296.36 250.69 303.326 243.863C310.293 236.896 313.776 226.446 313.776 212.513V161.726H326.316V263.3H314.194V244.49H311.686C309.178 249.924 305.068 254.801 299.355 259.12C293.643 263.3 285.352 265.39 274.484 265.39Z" fill="url(#paint6_linear_0_1)"/>
<path d="M180.124 295.3L179.706 245.535H177.198C175.387 248.879 172.809 252.153 169.465 255.358C166.26 258.563 162.08 261.21 156.925 263.3C151.77 265.251 145.43 266.226 137.906 266.226C128.849 266.226 120.559 264.136 113.035 259.956C105.65 255.637 99.7983 249.576 95.479 241.773C91.1597 233.831 89 224.496 89 213.767V211.259C89 200.391 91.1597 191.056 95.479 183.253C99.9377 175.45 105.859 169.459 113.244 165.279C120.629 160.96 128.849 158.8 137.906 158.8C149.053 158.8 157.691 161.029 163.822 165.488C170.092 169.807 174.69 174.754 177.616 180.327H180.124V161.726H192.246V295.3H180.124ZM140.832 254.94C152.397 254.94 161.732 251.248 168.838 243.863C176.083 236.478 179.706 226.307 179.706 213.349V211.677C179.706 198.719 176.083 188.548 168.838 181.163C161.732 173.778 152.397 170.086 140.832 170.086C129.407 170.086 120.071 173.778 112.826 181.163C105.581 188.548 101.958 198.719 101.958 211.677V213.349C101.958 226.307 105.581 236.478 112.826 243.863C120.071 251.248 129.407 254.94 140.832 254.94Z" fill="url(#paint7_linear_0_1)"/>
<defs>
<linearGradient id="paint0_linear_0_1" x1="-2.49394" y1="192.3" x2="997.506" y2="192.3" gradientUnits="userSpaceOnUse">
<stop stop-color="#3B5BDB"/>
<stop offset="0.35" stop-color="#5A4FCF"/>
<stop offset="0.65" stop-color="#7C3AED"/>
<stop offset="1" stop-color="#EC4899"/>
</linearGradient>
<linearGradient id="paint1_linear_0_1" x1="-2.49392" y1="192.3" x2="997.506" y2="192.3" gradientUnits="userSpaceOnUse">
<stop stop-color="#3B5BDB"/>
<stop offset="0.35" stop-color="#5A4FCF"/>
<stop offset="0.65" stop-color="#7C3AED"/>
<stop offset="1" stop-color="#EC4899"/>
</linearGradient>
<linearGradient id="paint2_linear_0_1" x1="-2.49392" y1="192.3" x2="997.506" y2="192.3" gradientUnits="userSpaceOnUse">
<stop stop-color="#3B5BDB"/>
<stop offset="0.35" stop-color="#5A4FCF"/>
<stop offset="0.65" stop-color="#7C3AED"/>
<stop offset="1" stop-color="#EC4899"/>
</linearGradient>
<linearGradient id="paint3_linear_0_1" x1="-2.49399" y1="192.3" x2="997.506" y2="192.3" gradientUnits="userSpaceOnUse">
<stop stop-color="#3B5BDB"/>
<stop offset="0.35" stop-color="#5A4FCF"/>
<stop offset="0.65" stop-color="#7C3AED"/>
<stop offset="1" stop-color="#EC4899"/>
</linearGradient>
<linearGradient id="paint4_linear_0_1" x1="-2.49399" y1="192.3" x2="997.506" y2="192.3" gradientUnits="userSpaceOnUse">
<stop stop-color="#2F6BFF"/>
<stop offset="0.35" stop-color="#5A4FCF"/>
<stop offset="0.65" stop-color="#7C3AED"/>
<stop offset="1" stop-color="#F43F8C"/>
</linearGradient>
<linearGradient id="paint5_linear_0_1" x1="-2.49394" y1="192.3" x2="997.506" y2="192.3" gradientUnits="userSpaceOnUse">
<stop stop-color="#3B5BDB"/>
<stop offset="0.35" stop-color="#5A4FCF"/>
<stop offset="0.65" stop-color="#7C3AED"/>
<stop offset="1" stop-color="#EC4899"/>
</linearGradient>
<linearGradient id="paint6_linear_0_1" x1="-2.49399" y1="192.3" x2="997.506" y2="192.3" gradientUnits="userSpaceOnUse">
<stop stop-color="#3B5BDB"/>
<stop offset="0.35" stop-color="#5A4FCF"/>
<stop offset="0.65" stop-color="#7C3AED"/>
<stop offset="1" stop-color="#EC4899"/>
</linearGradient>
<linearGradient id="paint7_linear_0_1" x1="-2.49398" y1="192.3" x2="997.506" y2="192.3" gradientUnits="userSpaceOnUse">
<stop stop-color="#3B5BDB"/>
<stop offset="0.35" stop-color="#5A4FCF"/>
<stop offset="0.6" stop-color="#7C3AED"/>
<stop offset="0.95" stop-color="#F43F8C"/>
</linearGradient>
</defs>
</svg>
