<?xml version="1.0" encoding="UTF-8"?>
<svg version="1.1" xmlns="http://www.w3.org/2000/svg" width="1536" height="1024">
<path d="M0 0 C506.88 0 1013.76 0 1536 0 C1536 337.92 1536 675.84 1536 1024 C1029.12 1024 522.24 1024 0 1024 C0 686.08 0 348.16 0 0 Z " fill="#FAF8FD" transform="translate(0,0)"/>
<path d="M0 0 C0 0.66 0 1.32 0 2 C1.06476563 2.17015625 2.12953125 2.3403125 3.2265625 2.515625 C37.59212425 8.17480367 72.26948992 22.89976468 97 48 C98.2065625 49.175625 98.2065625 49.175625 99.4375 50.375 C101.9653148 52.96446882 104.27679297 55.65360441 106.5703125 58.44921875 C108.11481807 60.24681775 108.11481807 60.24681775 111 62 C111.33 62.99 111.66 63.98 112 65 C112.99 65.66 113.98 66.32 115 67 C115.33 67.99 115.66 68.98 116 70 C117.32630484 71.34032497 118.6606034 72.67275763 120 74 C125.2134848 81.30121138 129.68838484 89.1986492 133.01171875 97.5390625 C133.92460334 99.96705181 133.92460334 99.96705181 135.1171875 101.984375 C136.22987638 104.5248505 136.19764816 106.48936975 136.125 109.25 C136.10695313 110.14203125 136.08890625 111.0340625 136.0703125 111.953125 C136.04710937 112.62859375 136.02390625 113.3040625 136 114 C133.50481115 111.50481115 133.04225986 109.42134526 132 106.0625 C130.91594501 102.57743259 130.03521028 100.05281541 128 97 C128 96.01 128 95.02 128 94 C127.34 94 126.68 94 126 94 C124.51953125 91.98046875 124.51953125 91.98046875 122.8125 89.1875 C121.87470703 87.67929687 121.87470703 87.67929687 120.91796875 86.140625 C119.70545701 84.15516789 118.49892881 82.16603324 117.30078125 80.171875 C113.73502605 74.35362641 109.84575881 69.32044449 105.18359375 64.3359375 C103.23676323 62.2532816 101.39542381 60.11975752 99.5625 57.9375 C87.7459943 44.47906526 72.64451157 34.32484351 56.91259766 26.01123047 C55.10425055 25.05511945 53.30757333 24.07703047 51.51171875 23.09765625 C45.03509174 19.68379403 38.55146367 16.9705557 31.625 14.625 C30.88781738 14.37403564 30.15063477 14.12307129 29.39111328 13.86450195 C24.59374588 12.31209421 20.03383203 11.39065215 15 11 C14.67 11.33 14.34 11.66 14 12 C15.155 12.20625 16.31 12.4125 17.5 12.625 C42.55897071 18.28473638 66.84079709 32.19051065 86 49 C86.86109375 49.73992187 87.7221875 50.47984375 88.609375 51.2421875 C94.13488262 56.08119266 99.55372506 61.12545239 104 67 C104 67.66 104 68.32 104 69 C104.66 69 105.32 69 106 69 C107.59036202 71.05322858 109.05698291 73.09700006 110.5 75.25 C110.90347656 75.83652344 111.30695313 76.42304688 111.72265625 77.02734375 C113.70429198 79.93766685 115.45692218 82.83965792 117 86 C117.495 86.45375 117.99 86.9075 118.5 87.375 C120.5746299 89.62251572 121.04048092 92.12144275 122 95 C122.99814143 96.00185513 123.99827302 97.00172996 125 98 C126.54442836 100.74701728 127.71801645 103.65854166 128.9375 106.5625 C129.29013916 107.40079346 129.64277832 108.23908691 130.00610352 109.1027832 C136.41682117 124.93030728 138.05656613 141.06365629 138.5625 158 C138.60578135 159.36068789 138.64939839 160.72136515 138.69335938 162.08203125 C138.79886683 165.38793157 138.90098256 168.69389999 139 172 C140.10190125 167.49436109 140.21801233 163.03092105 140.31640625 158.41796875 C140.33718735 157.60378983 140.35796844 156.7896109 140.37937927 155.95075989 C140.44449463 153.36308821 140.50358208 150.77531947 140.5625 148.1875 C140.60572142 146.42772455 140.64933685 144.66795872 140.69335938 142.90820312 C140.8001368 138.60556691 140.90151018 134.30283357 141 130 C141.66 130.33 142.32 130.66 143 131 C143 131.99 143 132.98 143 134 C143.66 134 144.32 134 145 134 C149.21717467 153.27851278 147.66241052 172.99141406 143 192 C142.82339844 192.75361816 142.64679688 193.50723633 142.46484375 194.28369141 C134.8510594 226.11353986 110.98185635 255.20018876 84.01171875 272.96875 C77.44192217 277 77.44192217 277 75 277 C77.86063362 281.64852964 81.2122737 285.55085491 84.87109375 289.59375 C87.63840113 292.72156898 90.20856749 295.98557361 92.796875 299.26171875 C95.33044686 302.41071498 97.93975327 305.48780099 100.5625 308.5625 C104.12519031 312.74541575 107.57523307 316.97884129 110.9140625 321.34375 C114.5349798 325.95465593 118.29027569 330.45610394 122.02661133 334.97363281 C123.1759718 336.36335021 124.32391617 337.7542404 125.47021484 339.14648438 C126.78081736 340.73443432 128.10223255 342.31344942 129.42578125 343.890625 C131 346 131 346 131 348 C120.18638949 348.23209916 109.37337497 348.40958112 98.5577774 348.51812172 C93.53501677 348.57022802 88.51396472 348.64084909 83.4921875 348.75439453 C78.64205761 348.86336768 73.79356644 348.92290551 68.94230652 348.94877243 C67.09537457 348.96719502 65.24852855 349.00317432 63.40229797 349.05730057 C48.94157984 349.46423471 48.94157984 349.46423471 44.16061401 345.85868835 C42.11853776 343.32908099 40.56510385 340.84180688 39 338 C37.86459729 336.54103919 36.70455306 335.10049035 35.5078125 333.69140625 C34.95279053 333.01247314 34.39776855 332.33354004 33.82592773 331.6340332 C28.39086524 325.01475586 22.87458438 318.53836741 17.06640625 312.2421875 C10 304.57466919 10 304.57466919 10 302 C8.77446411 302.21329956 8.77446411 302.21329956 7.52416992 302.4309082 C-1.24643791 303.835165 -9.68731466 304.28414243 -18.55102539 304.20581055 C-20.69624684 304.18742504 -22.8410355 304.18530284 -24.98632812 304.18554688 C-32.69983463 304.1652613 -40.3299267 303.88787714 -48 303 C-48 302.34 -48 301.68 -48 301 C-49.134375 301.0825 -50.26875 301.165 -51.4375 301.25 C-71.29488883 301.1570637 -91.88622622 291.25348715 -109 282 C-110.05703125 281.43539063 -111.1140625 280.87078125 -112.203125 280.2890625 C-119.46729738 276.23862083 -125.95953297 271.45284872 -132.42724609 266.25976562 C-133.94841865 265.04131632 -135.48376542 263.84062832 -137.01953125 262.640625 C-142.66488635 258.16141028 -147.49177048 253.60801939 -152 248 C-152.93689007 246.8731905 -153.87445078 245.74693845 -154.8125 244.62109375 C-175.44413333 219.63443789 -189.86758295 188.77146303 -191 156 C-191.02723145 155.22736816 -191.05446289 154.45473633 -191.08251953 153.65869141 C-192.13635388 119.10750622 -180.88574919 86.19146852 -158 60 C-157.18015625 59.05898438 -156.3603125 58.11796875 -155.515625 57.1484375 C-152.75016438 54.02757019 -149.89944418 50.99644447 -147 48 C-146.53029785 47.51273437 -146.0605957 47.02546875 -145.57666016 46.5234375 C-132.66932153 33.35645585 -116.07670722 21.98592568 -99 15 C-98.113125 14.6184375 -97.22625 14.236875 -96.3125 13.84375 C-95.3225 13.4209375 -94.3325 12.998125 -93.3125 12.5625 C-92.40113281 12.17191406 -91.48976563 11.78132813 -90.55078125 11.37890625 C-85.42896663 9.38990673 -80.23108096 7.67770945 -75 6 C-74.10128174 5.70875244 -73.20256348 5.41750488 -72.27661133 5.11743164 C-48.71830939 -2.13011553 -24.35872631 -0.58306655 0 0 Z " fill="#3F49A8" transform="translate(790,305)"/>
<path d="M0 0 C17.61710828 14.91601842 32.1440624 34.67024506 35.625 58.0625 C35.8970326 62.3374993 35.90482507 66.59261741 35.875 70.875 C35.88273438 71.97392578 35.89046875 73.07285156 35.8984375 74.20507812 C35.84314217 97.66412024 26.87900392 117.57460771 10.56640625 134.24609375 C1.68776236 142.93373488 -8.05255868 149.03030386 -19.375 154.0625 C-20.06722656 154.37703125 -20.75945312 154.6915625 -21.47265625 155.015625 C-23.41661733 155.81884408 -25.36331292 156.44674883 -27.375 157.0625 C-28.39464844 157.413125 -29.41429687 157.76375 -30.46484375 158.125 C-57.59791743 166.32471167 -87.11209074 161.0119355 -111.6953125 148.078125 C-127.40345073 139.57387139 -139.85474968 126.70722094 -148.375 111.0625 C-148.70081055 110.46856445 -149.02662109 109.87462891 -149.36230469 109.26269531 C-159.66259304 90.03617913 -162.86513055 67.65420159 -157.4140625 46.359375 C-149.11944822 20.04112519 -132.63088956 0.19571489 -108.375 -12.9375 C-72.67982839 -29.37045631 -30.87331096 -23.77881003 0 0 Z " fill="#FDFCFD" transform="translate(830.375,385.9375)"/>
<path d="M0 0 C1.61068359 0.39832031 1.61068359 0.39832031 3.25390625 0.8046875 C16.92193323 4.79673989 30.45821116 12.51032707 41 22 C41.62777344 22.51046875 42.25554687 23.0209375 42.90234375 23.546875 C52.03872569 30.98392988 59.28000612 40.74880616 65 51 C65 51.66 65 52.32 65 53 C64.01 53.99 64.01 53.99 63 55 C62.67 55.66 62.34 56.32 62 57 C61.6596875 56.47792969 61.319375 55.95585937 60.96875 55.41796875 C59.33172679 52.93195744 57.66925815 50.46448414 56 48 C55.41992188 47.13375 54.83984375 46.2675 54.2421875 45.375 C46.61471999 34.39655303 37.41054089 25.0295595 26 18 C24.94167969 17.33226562 23.88335938 16.66453125 22.79296875 15.9765625 C1.40255623 2.86080607 -26.5583497 -1.69947657 -51.22265625 3.31640625 C-66.43833181 7.06147407 -79.77172367 13.09491608 -92 23 C-92.92683594 23.75023437 -93.85367188 24.50046875 -94.80859375 25.2734375 C-110.59465112 38.80434381 -121.68620158 59.26151046 -124 80 C-124.22285994 84.44690614 -124.3423421 88.89811368 -124.4296875 93.34960938 C-124.6121125 98.63613395 -125.12831542 102.38534109 -128 107 C-129.32 106.34 -130.64 105.68 -132 105 C-132.05888242 100.89589532 -132.09388921 96.79190173 -132.125 92.6875 C-132.14175781 91.53958984 -132.15851562 90.39167969 -132.17578125 89.20898438 C-132.217193 81.89980998 -131.6244972 75.12718502 -130 68 C-129.62681641 66.35644531 -129.62681641 66.35644531 -129.24609375 64.6796875 C-122.10828845 39.92150294 -105.96564083 21.52509442 -83.71655273 8.91894531 C-57.64691479 -5.37439638 -28.47387724 -7.20841092 0 0 Z " fill="#223081" transform="translate(796,363)"/>
<path d="M0 0 C0.33 0 0.66 0 1 0 C-0.50896002 23.01164036 -17.73023508 47.02511874 -33.8125 62.75 C-36.03793033 64.75319882 -36.03793033 64.75319882 -36.7421875 66.85546875 C-38.57517654 69.98065814 -41.34948661 71.61237021 -44.3125 73.5625 C-45.16618164 74.14161133 -45.16618164 74.14161133 -46.03710938 74.73242188 C-55.33704216 81 -55.33704216 81 -58 81 C-55.13936638 85.64852964 -51.7877263 89.55085491 -48.12890625 93.59375 C-45.36159887 96.72156898 -42.79143251 99.98557361 -40.203125 103.26171875 C-37.66955314 106.41071498 -35.06024673 109.48780099 -32.4375 112.5625 C-28.87480969 116.74541575 -25.42476693 120.97884129 -22.0859375 125.34375 C-18.4650202 129.95465593 -14.70972431 134.45610394 -10.97338867 138.97363281 C-9.8240282 140.36335021 -8.67608383 141.7542404 -7.52978516 143.14648438 C-6.21918264 144.73443432 -4.89776745 146.31344942 -3.57421875 147.890625 C-2 150 -2 150 -2 152 C-6.17985056 152.70017801 -9.83573793 152.87721743 -14 152 C-17.76054536 148.89663733 -20.22792627 144.97980396 -23 141 C-24.7844205 138.79062233 -26.6408903 136.64663063 -28.5 134.5 C-31.90910939 130.50089778 -35.26035702 126.4633675 -38.5625 122.375 C-42.38552601 117.67288245 -46.42447269 113.21189443 -50.52734375 108.75390625 C-53.73789114 105.17817812 -56.74212112 101.45494498 -59.7578125 97.71484375 C-62.77213931 94.06509265 -65.94714062 90.57594599 -69.15234375 87.09375 C-71 85 -71 85 -73 82 C-72.04480469 81.443125 -71.08960938 80.88625 -70.10546875 80.3125 C-58.08864268 73.24689963 -47.1496739 65.61712928 -37 56 C-36.1028125 55.16726563 -35.205625 54.33453125 -34.28125 53.4765625 C-22.80374639 42.48266157 -11.70950545 27.93606626 -6 13 C-4.96999665 10.72385269 -3.92775586 8.4532137 -2.875 6.1875 C-2.33617187 5.02605469 -1.79734375 3.86460937 -1.2421875 2.66796875 C-0.83226562 1.78753906 -0.42234375 0.90710938 0 0 Z " fill="#EB5695" transform="translate(923,501)"/>
<path d="M0 0 C2 1.375 2 1.375 4 3 C4 3.66 4 4.32 4 5 C4.598125 5.103125 5.19625 5.20625 5.8125 5.3125 C8 6 8 6 9.4375 7.625 C9.953125 8.07875 10.46875 8.5325 11 9 C13.57872363 8.62494747 13.57872363 8.62494747 16 8 C16.33128906 8.62003906 16.66257812 9.24007813 17.00390625 9.87890625 C27.1589312 27.36387402 43.24140274 39.8211691 62 47 C63.03253906 47.42023437 64.06507813 47.84046875 65.12890625 48.2734375 C84.43926728 55.73867204 106.63845601 55.7019034 127 53 C127 53.66 127 54.32 127 55 C128.32 55.66 129.64 56.32 131 57 C130.67 57.99 130.34 58.98 130 60 C107.42716904 70.29637904 77.16544564 63.96878446 54.92089844 55.73779297 C31.01941817 46.55753453 13.43723735 28.96608594 1.26953125 6.85546875 C0 4 0 4 0 0 Z " fill="#F889B5" transform="translate(669,492)"/>
<path d="M0 0 C4.13167443 0.96698763 7.51226762 2.17979216 11.1875 4.3125 C31.76947318 16.10821908 59.40095586 22.58753231 83 23 C83.95737061 23.02852051 83.95737061 23.02852051 84.93408203 23.05761719 C92.20970433 23.2638979 99.32446789 23.31192821 106.5390625 22.234375 C120.47356045 20.1876092 120.47356045 20.1876092 124.7890625 22.484375 C126.90025907 24.85631696 128.40322551 27.25771338 130 30 C131.51446503 31.89703895 133.057143 33.77184443 134.625 35.625 C135.37136719 36.54667969 136.11773438 37.46835937 136.88671875 38.41796875 C138.69777711 40.63074061 140.5487154 42.79136275 142.4375 44.9375 C145 48 145 48 145.84765625 49.87890625 C146.97107722 52.19575851 146.97107722 52.19575851 149.32980347 54.27365112 C151.94341516 56.94222522 153.79475638 59.65459169 155.87548828 62.74267578 C158.58748766 66.07023569 160.14163282 67.74720534 164.28753662 68.96820068 C168.21599333 69.28329367 172.06156825 69.26395908 175.9921875 69.1171875 C177.42942269 69.10639276 178.86670987 69.10121024 180.3039856 69.10134888 C184.06258031 69.09008455 187.81720988 69.01768139 191.574646 68.9274292 C197.60713563 68.78993793 203.64012777 68.73289281 209.67398453 68.70175552 C211.77747519 68.67996934 213.87799027 68.62358268 215.98068237 68.5632019 C217.25275543 68.54734039 218.52482849 68.53147888 219.83544922 68.51513672 C220.95635956 68.4886203 222.0772699 68.46210388 223.23214722 68.43478394 C226 69 226 69 227.88528442 71.53030396 C228.43706863 72.7528035 228.43706863 72.7528035 229 74 C219.75095624 74.23226893 210.50292406 74.40966058 201.25159454 74.51812172 C196.95508939 74.57019453 192.66058683 74.64074462 188.36523438 74.75439453 C184.2153323 74.86350182 180.06734859 74.92293067 175.91612244 74.94877243 C174.33709003 74.96717233 172.75815637 75.00310867 171.1799469 75.05730057 C158.83140294 75.46423964 158.83140294 75.46423964 154.32174683 71.85868835 C152.28350237 69.33036568 150.64087777 66.79728617 149 64 C147.86064714 62.54412191 146.70024802 61.10413535 145.5078125 59.69140625 C144.67527954 58.67300659 144.67527954 58.67300659 143.82592773 57.6340332 C138.39086524 51.01475586 132.87458438 44.53836741 127.06640625 38.2421875 C120 30.57466919 120 30.57466919 120 28 C118.329375 28.2475 118.329375 28.2475 116.625 28.5 C111.74489662 29.12094505 106.91138052 29.09057874 102 29 C102.495 27.515 102.495 27.515 103 26 C102.36312256 26.02094727 101.72624512 26.04189453 101.07006836 26.06347656 C86.08524728 26.48690529 72.1008487 25.58047502 57.42529297 22.50390625 C55.35395755 22.07354222 53.27333023 21.68831397 51.19140625 21.3125 C35.07510704 18.27527047 19.59824201 12.37760618 5 5 C5 4.34 5 3.68 5 3 C2.525 2.01 2.525 2.01 0 1 C0 0.67 0 0.34 0 0 Z " fill="#1E1539" transform="translate(680,579)"/>
<path d="M0 0 C6.19277878 0.53080961 11.68955463 1.5501564 17.5625 3.5625 C18.33625977 3.82498535 19.11001953 4.0874707 19.90722656 4.35791016 C27.98321977 7.19653445 35.49126467 10.91790086 43 15 C43.61359375 15.32758301 44.2271875 15.65516602 44.859375 15.99267578 C71.06875814 30.04241722 101.36287623 55.27462712 112 84 C112.66 84 113.32 84 114 84 C119.37129841 96.48519362 119.37129841 96.48519362 121 103 C121.2993987 95.77967794 121.2993987 95.77967794 119 89 C119.66 89 120.32 89 121 89 C124.63028467 96.61395989 127.12179331 104.38872148 129.375 112.5 C129.64973145 113.46760254 129.92446289 114.43520508 130.20751953 115.43212891 C130.45614746 116.35171387 130.70477539 117.27129883 130.9609375 118.21875 C131.18571777 119.04310547 131.41049805 119.86746094 131.64208984 120.71679688 C132.02351261 123.14999316 131.76980441 124.68193728 131 127 C131 126.01 131 125.02 131 124 C130.01 124.33 129.02 124.66 128 125 C127.67 123.35 127.34 121.7 127 120 C127.01047363 121.08418213 127.02094727 122.16836426 127.03173828 123.28540039 C127.06810643 127.33142762 127.09096137 131.37744057 127.10986328 135.42358398 C127.11988268 137.17035355 127.13350195 138.9171065 127.15087891 140.66381836 C127.17530669 143.18347285 127.18652389 145.70290439 127.1953125 148.22265625 C127.20563507 148.99585709 127.21595764 149.76905792 127.22659302 150.56568909 C127.22758391 155.42129596 126.54272894 159.39049673 125 164 C124.67 164 124.34 164 124 164 C123.98541748 163.16041748 123.97083496 162.32083496 123.95581055 161.45581055 C123.4662865 136.16834748 122.1603861 113.21630247 110.91796875 90.07421875 C110 88 110 88 110 86 C109.0409375 85.7215625 109.0409375 85.7215625 108.0625 85.4375 C107.381875 84.963125 106.70125 84.48875 106 84 C105.66666667 81.66666667 105.33333333 79.33333333 105 77 C103.11683841 75.89163577 103.11683841 75.89163577 101 75 C99.96244882 73.01922047 98.97004121 71.01470098 98 69 C96.45586912 66.86441539 94.84881622 64.79559408 93.20703125 62.734375 C92 61 92 61 92 59 C91.34 59 90.68 59 90 59 C88.5546875 57.3125 88.5546875 57.3125 86.875 55 C65.91888672 27.487066 31.92765875 12.44011305 0 2 C0 1.34 0 0.68 0 0 Z " fill="#DA63AF" transform="translate(804,315)"/>
<path d="M0 0 C0.33 0 0.66 0 1 0 C-0.50896002 23.01164036 -17.73023508 47.02511874 -33.8125 62.75 C-36.03728506 64.7545442 -36.03728506 64.7545442 -36.75 66.859375 C-38.55437848 69.94937315 -41.26149002 71.5725165 -44.1875 73.5 C-44.77901855 73.89364746 -45.37053711 74.28729492 -45.97998047 74.69287109 C-47.65086036 75.79897242 -49.3253163 76.8996663 -51 78 C-51.66902344 78.49757813 -52.33804688 78.99515625 -53.02734375 79.5078125 C-58.10773225 83.060358 -63.2294551 81.96001832 -69 81 C-66.2983428 77.93168932 -62.94304557 75.99657057 -59.5 73.875 C-42.05629557 62.8260495 -27.16844613 48.3693168 -16 31 C-15.42548096 30.11272217 -15.42548096 30.11272217 -14.83935547 29.20751953 C-11.46712829 23.96325749 -8.23458151 18.84566523 -6 13 C-4.96999665 10.72385269 -3.92775586 8.4532137 -2.875 6.1875 C-2.33617187 5.02605469 -1.79734375 3.86460937 -1.2421875 2.66796875 C-0.83226562 1.78753906 -0.42234375 0.90710938 0 0 Z " fill="#E53A72" transform="translate(923,501)"/>
<path d="M0 0 C5.83062335 0.08241164 5.83062335 0.08241164 8.9375 2.25 C9.700625 3.28125 10.46375 4.3125 11.25 5.375 C12.84315584 7.15574587 14.44826744 8.92583753 16.0625 10.6875 C17.45968495 12.2487915 18.85596932 13.8108915 20.25 15.375 C19.26 17.85 19.26 17.85 18.25 20.375 C18.91 20.375 19.57 20.375 20.25 20.375 C20.75615298 21.64339526 21.25469099 22.91483102 21.75 24.1875 C22.0284375 24.89519531 22.306875 25.60289062 22.59375 26.33203125 C23.25 28.375 23.25 28.375 23.25 31.375 C23.848125 31.643125 24.44625 31.91125 25.0625 32.1875 C27.37698145 33.44393279 28.65901439 34.27779169 30.25 36.375 C30.45625 37.385625 30.6625 38.39625 30.875 39.4375 C32.08312531 44.2397981 35.45704671 47.15795034 38.78515625 50.6640625 C42.67382023 54.94097661 45.94642177 59.64017125 49.25 64.375 C48.26 64.87 48.26 64.87 47.25 65.375 C46.72792969 64.73175781 46.20585938 64.08851563 45.66796875 63.42578125 C36.23315755 51.84293948 26.52012711 40.50063981 16.78808594 29.16748047 C15.21396779 27.33300818 13.64185745 25.49683325 12.0703125 23.66015625 C11.02608822 22.44006432 9.98181812 21.22001161 8.9375 20 C8.18557373 19.12154419 8.18557373 19.12154419 7.41845703 18.2253418 C4.19430068 14.46346794 0.94452664 10.72609612 -2.34765625 7.0234375 C-3.90003804 5.19863216 -5.33041095 3.30429314 -6.75 1.375 C-4.95690039 -0.41809961 -2.42624022 0.07692957 0 0 Z " fill="#FB91AE" transform="translate(856.75,581.625)"/>
<path d="M0 0 C6.19277878 0.53080961 11.68955463 1.5501564 17.5625 3.5625 C18.33625977 3.82498535 19.11001953 4.0874707 19.90722656 4.35791016 C27.98321977 7.19653445 35.49126467 10.91790086 43 15 C43.61359375 15.32758301 44.2271875 15.65516602 44.859375 15.99267578 C68.09684151 28.44929846 93.78226922 48.92624757 106 73 C105.505 74.485 105.505 74.485 105 76 C101.1691812 73.16881693 98.45626044 70.24396468 95.6875 66.375 C94.99011719 65.41335938 94.29273438 64.45171875 93.57421875 63.4609375 C92 61 92 61 92 59 C91.34 59 90.68 59 90 59 C88.5546875 57.3125 88.5546875 57.3125 86.875 55 C65.91888672 27.487066 31.92765875 12.44011305 0 2 C0 1.34 0 0.68 0 0 Z " fill="#D7E1FC" transform="translate(804,315)"/>
<path d="M0 0 C6 7.71428571 6 7.71428571 6 11 C6.66 11 7.32 11 8 11 C8.20625 11.721875 8.4125 12.44375 8.625 13.1875 C10.10209492 16.20883052 11.81074061 17.72165457 14.44140625 19.765625 C16.81689751 21.64696645 18.85803807 23.85803807 21 26 C22.63392185 27.55428532 24.28100997 29.09478948 25.9375 30.625 C26.75089844 31.38039063 27.56429687 32.13578125 28.40234375 32.9140625 C31.12704781 35.10202035 33.8297275 36.55099627 37 38 C37 38.66 37 39.32 37 40 C38.19302734 40.32677734 38.19302734 40.32677734 39.41015625 40.66015625 C43.19885543 42.07421916 46.40545522 43.89076898 49.87890625 45.93579102 C58.20061911 50.82003298 65.44576305 54.25214306 75.03125 55.53515625 C77.78861821 55.96690206 79.61798306 56.59297528 82 58 C82 58.66 82 59.32 82 60 C83.485 60.495 83.485 60.495 85 61 C77.07474133 61.34561278 69.49903165 58.65432845 62.3125 55.4375 C58.68140585 53.86174216 55.04560401 52.79358992 51.234375 51.74609375 C49 51 49 51 46 49 C44.92234375 48.88398437 43.8446875 48.76796875 42.734375 48.6484375 C38.4208239 47.89943176 35.66938661 46.20024379 32.25 43.625 C31.64510742 43.17729248 31.04021484 42.72958496 30.41699219 42.26831055 C17.62176883 32.57419385 5.79171893 19.26583926 0 4 C0 2.68 0 1.36 0 0 Z " fill="#EFB7C1" transform="translate(669,492)"/>
<path d="M0 0 C0.66 0.33 1.32 0.66 2 1 C2.61283843 3.49989536 3.1350315 5.9757774 3.625 8.5 C5.3880472 16.87447419 8.54474867 24.07548663 12.390625 31.68359375 C14 35 14 35 14 37 C12.25 37.75 12.25 37.75 10 38 C7.9375 36.125 7.9375 36.125 6 34 C5.01 33.67 4.02 33.34 3 33 C3 32.34 3 31.68 3 31 C2.01 30.67 1.02 30.34 0 30 C-4.40448043 21.95908021 -6.32443403 13.08415285 -6 4 C-4.68 4 -3.36 4 -2 4 C-1.34 2.68 -0.68 1.36 0 0 Z " fill="#8540A5" transform="translate(670,464)"/>
<path d="M0 0 C3.61235305 0.54732622 6.5945363 1.6866255 9.9140625 3.1796875 C12.40412697 4.15892633 14.910937 4.82613429 17.5 5.5 C20.70219395 6.33554514 23.72931809 7.20863581 26.75 8.5625 C39.49809601 14.20108093 59.76202064 16.04303976 73 11 C72.505 9.02 72.505 9.02 72 7 C73.41377782 6.63447197 74.83120576 6.28304505 76.25 5.9375 C77.03890625 5.74027344 77.8278125 5.54304687 78.640625 5.33984375 C82.2597153 4.81855094 84.2720742 5.49449597 87.25 7.5625 C87.8275 8.036875 88.405 8.51125 89 9 C88.67 9.99 88.34 10.98 88 12 C65.45418318 22.2840568 35.2039628 15.98148929 12.97802734 7.76855469 C1.69163603 3.38327206 1.69163603 3.38327206 0 0 Z " fill="#9C81C0" transform="translate(711,540)"/>
<path d="M0 0 C4.13167443 0.96698763 7.51226762 2.17979216 11.1875 4.3125 C31.76947318 16.10821908 59.40095586 22.58753231 83 23 C83.95737061 23.02852051 83.95737061 23.02852051 84.93408203 23.05761719 C92.23021721 23.26447949 99.41857886 23.22663194 106.6796875 22.41015625 C107.62779297 22.30356689 108.57589844 22.19697754 109.55273438 22.0871582 C111.40306019 21.86611149 113.25106555 21.62445471 115.09570312 21.36010742 C121.44235044 20.58134418 121.44235044 20.58134418 124.6015625 22.953125 C125.29378906 23.96632813 125.29378906 23.96632813 126 25 C125.67 25.66 125.34 26.32 125 27 C124.39152222 26.25302856 124.39152222 26.25302856 123.77075195 25.4909668 C122.12747394 23.81349404 122.12747394 23.81349404 119.98901367 23.84301758 C119.22306885 23.94251709 118.45712402 24.0420166 117.66796875 24.14453125 C116.79857666 24.24491699 115.92918457 24.34530273 115.03344727 24.44873047 C113.62470337 24.62879639 113.62470337 24.62879639 112.1875 24.8125 C93.34530832 26.82361461 76.06105055 26.31876199 57.47363281 22.50390625 C55.38136554 22.07768836 53.28116875 21.69068067 51.1796875 21.3125 C35.06726923 18.26523413 19.59706956 12.37701365 5 5 C5 4.34 5 3.68 5 3 C2.525 2.01 2.525 2.01 0 1 C0 0.67 0 0.34 0 0 Z " fill="#23175A" transform="translate(680,579)"/>
<path d="M0 0 C1.3243121 3.97293629 0.26698573 5.4236402 -1.3125 9.25 C-6.15842457 21.37152323 -7.22619869 32.35838758 -7.29516602 45.36083984 C-7.3066405 46.85963414 -7.32702017 48.35838905 -7.35668945 49.85693359 C-7.54281355 59.30039195 -6.88732761 67.15539972 -3.76635742 76.15771484 C-2.99880395 79.00443595 -2.96048849 80.29211142 -4 83 C-13.35278854 61.41095451 -15.81368792 37.31149767 -7.25390625 15.06054688 C-5.1864186 9.84039771 -3.12425425 4.68638138 0 0 Z " fill="#2E6CBE" transform="translate(672,411)"/>
<path d="M0 0 C0.5775 0.45375 1.155 0.9075 1.75 1.375 C3.87687364 3.03796658 3.87687364 3.03796658 6.0625 3.875 C8.71705593 5.41635506 9.64560296 7.29120593 11 10 C11 10.66 11 11.32 11 12 C11.66 12 12.32 12 13 12 C18.37129841 24.48519362 18.37129841 24.48519362 20 31 C20.2993987 23.77967794 20.2993987 23.77967794 18 17 C18.66 17 19.32 17 20 17 C22.71779942 21.64044837 23.32560386 24.80079066 23.07421875 30.1484375 C23.04777786 30.80582916 23.02133698 31.46322083 22.99409485 32.14053345 C22.90701873 34.21968659 22.79764461 36.29695437 22.6875 38.375 C22.62416893 39.79290333 22.5623054 41.21087301 22.50195312 42.62890625 C22.35159464 46.08686767 22.18123595 49.54350346 22 53 C21.67 53 21.34 53 21 53 C20.8040625 51.92105469 20.608125 50.84210938 20.40625 49.73046875 C18.18592826 38.34683306 14.52684462 28.20592144 9.67089844 17.68554688 C9 16 9 16 9 14 C8.360625 13.814375 7.72125 13.62875 7.0625 13.4375 C6.381875 12.963125 5.70125 12.48875 5 12 C4.66666667 9.66666667 4.33333333 7.33333333 4 5 C2.06402968 3.48705712 2.06402968 3.48705712 0 3 C0 2.01 0 1.02 0 0 Z " fill="#E368B7" transform="translate(905,387)"/>
<path d="M0 0 C1 3 1 3 0 6 C0.39832031 6.56589844 0.79664063 7.13179687 1.20703125 7.71484375 C2 10 2 10 0.32421875 13.50390625 C-0.53581715 14.86884472 -1.41611661 16.22115158 -2.3125 17.5625 C-2.77454834 18.27486816 -3.23659668 18.98723633 -3.71264648 19.72119141 C-7.74062531 25.82961544 -12.16892977 31.5043381 -17 37 C-17.74121094 37.86238281 -18.48242188 38.72476563 -19.24609375 39.61328125 C-24.13518367 45.19718118 -29.3363214 50.20662662 -35 55 C-35 52 -35 52 -33.625 50.3125 C-32 49 -32 49 -30 49 C-29.74089844 48.25234375 -29.48179687 47.5046875 -29.21484375 46.734375 C-27.95899577 43.90770752 -26.72541634 42.42640646 -24.5625 40.25 C-14.16626467 28.92586752 -5.69182307 14.22955766 0 0 Z " fill="#2C3A9F" transform="translate(921,514)"/>
<path d="M0 0 C3.03869199 0 5.22350718 0.32974376 7.5703125 2.35546875 C9.47073813 4.50836638 11.23925129 6.7308898 13 9 C13.85729108 10.08655482 14.71541862 11.17245002 15.57421875 12.2578125 C17.47367003 14.6647687 19.36405087 17.07854772 21.25 19.49609375 C25.08402179 24.3985049 29.04714234 29.19332508 33 34 C40.82856421 43.5469046 48.53815551 53.16316663 56 63 C55.01 63.495 55.01 63.495 54 64 C53.21689453 63.03513672 53.21689453 63.03513672 52.41796875 62.05078125 C42.98315755 50.46793948 33.27012711 39.12563981 23.53808594 27.79248047 C21.96396779 25.95800818 20.39185745 24.12183325 18.8203125 22.28515625 C17.77608822 21.06506432 16.73181812 19.84501161 15.6875 18.625 C14.93557373 17.74654419 14.93557373 17.74654419 14.16845703 16.8503418 C10.94430068 13.08846794 7.69452664 9.35109612 4.40234375 5.6484375 C2.84996196 3.82363216 1.41958905 1.92929314 0 0 Z " fill="#F7E0E8" transform="translate(850,583)"/>
<path d="M0 0 C9.57 0 19.14 0 29 0 C29.66 1.32 30.32 2.64 31 4 C27.21099716 7.78900284 21.48514267 7.15813136 16.375 7.1875 C9.75196186 7.15227107 3.47869799 6.32896369 -3 5 C-3 4.34 -3 3.68 -3 3 C-3.99 2.67 -4.98 2.34 -6 2 C-1.692037 1.79962963 1.0451599 2.41806396 5 4 C8.20870233 4.16757757 8.20870233 4.16757757 11 4 C7.37 3.01 3.74 2.02 0 1 C0 0.67 0 0.34 0 0 Z " fill="#E966B2" transform="translate(754,547)"/>
<path d="M0 0 C0.66 0 1.32 0 2 0 C2 0.66 2 1.32 2 2 C2.8971875 2.1546875 2.8971875 2.1546875 3.8125 2.3125 C6 3 6 3 7.4375 4.625 C7.953125 5.07875 8.46875 5.5325 9 6 C11.57872363 5.62494747 11.57872363 5.62494747 14 5 C14.45890625 5.74765625 14.9178125 6.4953125 15.390625 7.265625 C16.00421875 8.25046875 16.6178125 9.2353125 17.25 10.25 C17.85328125 11.22453125 18.4565625 12.1990625 19.078125 13.203125 C20.88855154 16.0338025 20.88855154 16.0338025 23.234375 18.171875 C25 20 25 20 25 23 C17.74355147 22.31970795 11.07371167 16.94686888 6 12 C6 10.68 6 9.36 6 8 C5.34 8 4.68 8 4 8 C2.68 5.36 1.36 2.72 0 0 Z " fill="#DC5FB2" transform="translate(671,495)"/>
<path d="M0 0 C0.86625 0.7115625 0.86625 0.7115625 1.75 1.4375 C0.75 4.4375 0.75 4.4375 -2.5 6.0625 C-8.2302977 8.0597388 -14.23488207 8.17158777 -20.25 8.4375 C-20.58 7.4475 -20.91 6.4575 -21.25 5.4375 C-18.94 4.7775 -16.63 4.1175 -14.25 3.4375 C-14.58 2.1175 -14.91 0.7975 -15.25 -0.5625 C-13.83622218 -0.92802803 -12.41879424 -1.27945495 -11 -1.625 C-10.21109375 -1.82222656 -9.4221875 -2.01945313 -8.609375 -2.22265625 C-4.9902847 -2.74394906 -2.9779258 -2.06800403 0 0 Z " fill="#8F57B4" transform="translate(798.25,547.5625)"/>
<path d="M0 0 C9.77649832 7.26970388 18.71024671 18.54735634 23 30 C22.01 30 21.02 30 20 30 C18.0625 27.953125 18.0625 27.953125 16 25.25 C15.319375 24.36828125 14.63875 23.4865625 13.9375 22.578125 C13.298125 21.72734375 12.65875 20.8765625 12 20 C11.4225 19.27296875 10.845 18.5459375 10.25 17.796875 C9 16 9 16 9 14 C8.34 14 7.68 14 7 14 C5.34375 12.13671875 5.34375 12.13671875 3.5 9.6875 C2.8915625 8.88699219 2.283125 8.08648437 1.65625 7.26171875 C0.39439121 5.53856725 -0.81528469 3.77707297 -2 2 C-1.34 2 -0.68 2 0 2 C0 1.34 0 0.68 0 0 Z " fill="#DCCDF3" transform="translate(887,360)"/>
<path d="M0 0 C6 7.71428571 6 7.71428571 6 11 C6.66 11 7.32 11 8 11 C8.226875 11.680625 8.45375 12.36125 8.6875 13.0625 C10.08562547 16.19163795 11.81090901 18.63923377 13.87890625 21.3515625 C15 23 15 23 16 26 C17.55435472 27.61416944 17.55435472 27.61416944 19.5 29.1875 C22.59280804 31.8036387 25.62657819 34.46351002 28.625 37.1875 C31.93697777 40.14543877 35.27264562 42.60384361 39 45 C40.875 46.75 40.875 46.75 42 48 C30.92131755 46.23808906 19.03514374 33.65358279 12.61914062 25.17529297 C0 7.59481885 0 7.59481885 0 0 Z " fill="#878DC9" transform="translate(669,492)"/>
<path d="M0 0 C0.66 0.33 1.32 0.66 2 1 C1.360625 1.5775 0.72125 2.155 0.0625 2.75 C-1.97370229 4.97131159 -2.80175602 6.02634035 -3 9 C-2.34 9.66 -1.68 10.32 -1 11 C-7.16159389 15.39679169 -11.40064859 16.4967498 -18.91015625 15.39453125 C-19.59980469 15.26433594 -20.28945313 15.13414062 -21 15 C-18.19661257 11.79612865 -14.6353014 9.73438354 -11.0625 7.5 C-7.27957241 5.11946613 -3.52524016 2.75657877 0 0 Z " fill="#E54E88" transform="translate(875,567)"/>
<path d="M0 0 C1.26900388 3.38401035 0.71970336 6.18647765 0.2512207 9.69433594 C-0.19066139 13.74986018 -0.19054236 17.79899666 -0.1875 21.875 C-0.18814453 22.7810498 -0.18878906 23.68709961 -0.18945312 24.62060547 C-0.13035414 32.32630675 0.56846967 39.87245574 1.5625 47.5078125 C2 51 2 51 2 54 C1.34 54 0.68 54 0 54 C-2.60032954 42.8160584 -3.08923699 31.6936302 -3.1875 20.25 C-3.20707764 18.93745239 -3.20707764 18.93745239 -3.22705078 17.59838867 C-3.23462577 11.87439925 -2.70120203 6.49099297 -1 1 C-0.67 0.67 -0.34 0.34 0 0 Z " fill="#364478" transform="translate(602,430)"/>
<path d="M0 0 C0.66 0.33 1.32 0.66 2 1 C0.71034824 2.37562854 -0.62689293 3.70766393 -2 5 C-2.66 5 -3.32 5 -4 5 C-3.67 6.98 -3.34 8.96 -3 11 C-4.26607607 11.53229326 -5.53810412 12.05044544 -6.8125 12.5625 C-7.52019531 12.85253906 -8.22789062 13.14257812 -8.95703125 13.44140625 C-11 14 -11 14 -14 13 C-13.34 12.67 -12.68 12.34 -12 12 C-12 11.34 -12 10.68 -12 10 C-13.98 9.34 -15.96 8.68 -18 8 C-17.01 7.67 -16.02 7.34 -15 7 C-15 6.34 -15 5.68 -15 5 C-13.87851562 4.70996094 -13.87851562 4.70996094 -12.734375 4.4140625 C-11.74953125 4.15367187 -10.7646875 3.89328125 -9.75 3.625 C-8.77546875 3.36976563 -7.8009375 3.11453125 -6.796875 2.8515625 C-4.03044689 2.10283347 -4.03044689 2.10283347 -1.765625 0.8359375 C-1.18296875 0.56007813 -0.6003125 0.28421875 0 0 Z " fill="#6551A7" transform="translate(811,539)"/>
<path d="M0 0 C0.66 0.33 1.32 0.66 2 1 C2.11269443 7.1105424 1.89604368 12.95170514 1 19 C0.01 18.01 -0.98 17.02 -2 16 C-2.66 17.32 -3.32 18.64 -4 20 C-5.59162079 14.42932723 -6.20674944 9.78898419 -6 4 C-4.68 4 -3.36 4 -2 4 C-1.34 2.68 -0.68 1.36 0 0 Z " fill="#643B9C" transform="translate(670,464)"/>
<path d="M0 0 C7.20610687 -0.61068702 7.20610687 -0.61068702 10.4375 1.875 C11.30429252 2.90618421 12.1556649 3.95034845 13 5 C14.5991686 6.77534819 16.20372384 8.54585328 17.8125 10.3125 C19.20968495 11.8737915 20.60596932 13.4358915 22 15 C21.01 17.475 21.01 17.475 20 20 C19.67 19.34 19.34 18.68 19 18 C18.01 18 17.02 18 16 18 C13 12.25 13 12.25 13 10 C11.68 9.67 10.36 9.34 9 9 C8.67 6.69 8.34 4.38 8 2 C5.36 1.67 2.72 1.34 0 1 C0 0.67 0 0.34 0 0 Z " fill="#F677A5" transform="translate(855,582)"/>
<path d="M0 0 C1.29702299 3.89106898 0.3830864 5.07717576 -1.1875 8.8125 C-5.80100335 20.37188895 -8.57520139 31.66424358 -10 44 C-10.33 44 -10.66 44 -11 44 C-11.58041933 28.26418712 -8.90993676 13.36490514 0 0 Z " fill="#128DD6" transform="translate(672,411)"/>
<path d="M0 0 C6.4631957 0.52734532 12.07782412 1.73947817 18.1875 3.875 C18.95513672 4.13152344 19.72277344 4.38804687 20.51367188 4.65234375 C24.86298611 6.13565743 28.932933 7.83349222 33 10 C32.34 10.33 31.68 10.66 31 11 C30.34 10.67 29.68 10.34 29 10 C29 10.66 29 11.32 29 12 C22.45368561 9.84190736 15.94039115 7.59781538 9.4375 5.3125 C8.52419922 4.99216797 7.61089844 4.67183594 6.66992188 4.34179688 C4.44639654 3.56181678 2.22309402 2.78120838 0 2 C0 1.34 0 0.68 0 0 Z " fill="#BCD6FB" transform="translate(804,315)"/>
<path d="M0 0 C1.48297502 0.06591 2.96285515 0.20476019 4.4375 0.375 C5.77748047 0.52388672 5.77748047 0.52388672 7.14453125 0.67578125 C8.08683594 0.78277344 9.02914062 0.88976562 10 1 C11.87472168 1.19026269 13.74971091 1.37791377 15.625 1.5625 C17.08333333 1.70833333 18.54166667 1.85416667 20 2 C19.67 2.66 19.34 3.32 19 4 C21.64 4.99 24.28 5.98 27 7 C27 7.33 27 7.66 27 8 C25.783125 8.04125 24.56625 8.0825 23.3125 8.125 C22.28576172 8.15980469 22.28576172 8.15980469 21.23828125 8.1953125 C18.53964144 7.9598291 16.50339105 7.0203215 14 6 C11.2146141 5.46662823 8.42825546 5.06117935 5.62109375 4.66015625 C2.78031298 3.94466899 1.1990148 2.89891395 -1 1 C-0.67 0.67 -0.34 0.34 0 0 Z " fill="#F66FAB" transform="translate(740,544)"/>
<path d="M0 0 C0.66 0 1.32 0 2 0 C2.93938295 7.56378017 3.12265008 15.00907505 3.0625 22.625 C3.05798828 23.72457031 3.05347656 24.82414062 3.04882812 25.95703125 C3.03717139 28.63808003 3.02081017 31.31900932 3 34 C2.67 34 2.34 34 2 34 C2 29.38 2 24.76 2 20 C1.01 20.33 0.02 20.66 -1 21 C-1.02888146 17.68751813 -1.04675799 14.37506833 -1.0625 11.0625 C-1.07087891 10.11697266 -1.07925781 9.17144531 -1.08789062 8.19726562 C-1.09111328 7.29814453 -1.09433594 6.39902344 -1.09765625 5.47265625 C-1.10289307 4.64000244 -1.10812988 3.80734863 -1.11352539 2.94946289 C-1 1 -1 1 0 0 Z " fill="#4553B7" transform="translate(934,442)"/>
<path d="M0 0 C0.66 0 1.32 0 2 0 C2.86996586 3.07909767 3.71815852 6.16378631 4.5625 9.25 C4.9327832 10.55904297 4.9327832 10.55904297 5.31054688 11.89453125 C5.53935547 12.73886719 5.76816406 13.58320313 6.00390625 14.453125 C6.21861572 15.22817383 6.4333252 16.00322266 6.65454102 16.80175781 C7.0298967 19.19024018 6.74681558 20.720964 6 23 C6 22.01 6 21.02 6 20 C5.01 20.33 4.02 20.66 3 21 C2.67 19.35 2.34 17.7 2 16 C1.67 17.32 1.34 18.64 1 20 C-0.05619003 15.71702469 -0.11702092 11.57014354 -0.0625 7.1875 C-0.05798828 6.49462891 -0.05347656 5.80175781 -0.04882812 5.08789062 C-0.03713156 3.39188932 -0.01919924 1.69593297 0 0 Z " fill="#AC52B4" transform="translate(929,419)"/>
<path d="M0 0 C0.33 0 0.66 0 1 0 C0.41840903 8.8692623 -1.74702008 17.66166625 -7 25 C-7.99 25 -8.98 25 -10 25 C-10.33 24.34 -10.66 23.68 -11 23 C-10.04060332 21.30963442 -9.03357147 19.64605826 -8 18 C-7.32484889 16.33675221 -6.65973011 14.66942457 -6 13 C-4.96999665 10.72385269 -3.92775586 8.4532137 -2.875 6.1875 C-2.33617187 5.02605469 -1.79734375 3.86460937 -1.2421875 2.66796875 C-0.62730469 1.34732422 -0.62730469 1.34732422 0 0 Z " fill="#B3408A" transform="translate(923,501)"/>
<path d="M0 0 C0.33 0.66 0.66 1.32 1 2 C0 5 0 5 -2 6 C-2.14566406 6.60457031 -2.29132812 7.20914063 -2.44140625 7.83203125 C-4.43604868 15.57347565 -14.25490505 22.00627562 -20 27 C-20 24 -20 24 -18.625 22.3125 C-17 21 -17 21 -15 21 C-14.74863281 20.26523437 -14.49726562 19.53046875 -14.23828125 18.7734375 C-12.90823352 15.79446624 -11.41863697 13.9883841 -9.1875 11.625 C-5.78050603 7.92012678 -2.83078776 4.15771952 0 0 Z " fill="#523A8E" transform="translate(906,542)"/>
<path d="M0 0 C1.17482324 3.47454806 1.06339535 3.8675142 -0.65234375 7.453125 C-1.40158685 8.72617522 -2.16382013 9.99165126 -2.9375 11.25 C-3.32357422 11.8996875 -3.70964844 12.549375 -4.10742188 13.21875 C-5.06058418 14.81912129 -6.02885924 16.4104742 -7 18 C-7.33 17.01 -7.66 16.02 -8 15 C-9.98 15.99 -9.98 15.99 -12 17 C-10.40249938 13.64604347 -8.53466734 10.5219853 -6.5625 7.375 C-5.96566406 6.41335938 -5.36882813 5.45171875 -4.75390625 4.4609375 C-3 2 -3 2 0 0 Z " fill="#CA3C79" transform="translate(914,524)"/>
<path d="M0 0 C0.66 0.33 1.32 0.66 2 1 C2 1.99 2 2.98 2 4 C2.66 4 3.32 4 4 4 C3.8445874 4.51876709 3.6891748 5.03753418 3.52905273 5.57202148 C2.85397978 8.67012973 2.70645334 11.68107119 2.53515625 14.84765625 C2.45668073 16.18816867 2.37789537 17.52866298 2.29882812 18.86914062 C2.1789671 20.97126184 2.06191983 23.07344224 1.95043945 25.17602539 C1.84083033 27.21294802 1.72001981 29.24896555 1.59765625 31.28515625 C1.53070557 32.50082275 1.46375488 33.71648926 1.39477539 34.96899414 C1 38 1 38 -1 41 C-0.67 27.47 -0.34 13.94 0 0 Z " fill="#7B4DA8" transform="translate(931,435)"/>
<path d="M0 0 C-0.625 1.9375 -0.625 1.9375 -2 4 C-6.4679362 5.06379433 -10.79873082 5.10567235 -15.375 5.0625 C-17.24285156 5.04896484 -17.24285156 5.04896484 -19.1484375 5.03515625 C-20.55996094 5.01775391 -20.55996094 5.01775391 -22 5 C-22 4.67 -22 4.34 -22 4 C-16.555 3.01 -16.555 3.01 -11 2 C-10.67 1.01 -10.34 0.02 -10 -1 C-5.92224809 -1.9267618 -3.57818963 -2.33958553 0 0 Z " fill="#C855B4" transform="translate(785,549)"/>
<path d="M0 0 C3.59478807 3.32850747 6.22364768 6.98971331 9 11 C9.99 9.68 10.98 8.36 12 7 C15 12.75 15 12.75 15 15 C13.25 15.75 13.25 15.75 11 16 C8.9375 14.125 8.9375 14.125 7 12 C6.01 11.67 5.02 11.34 4 11 C4 10.34 4 9.68 4 9 C3.01 8.67 2.02 8.34 1 8 C-0.35439668 5.29120665 -0.06501451 2.99066732 0 0 Z " fill="#AA47AB" transform="translate(669,486)"/>
<path d="M0 0 C8.98463763 8.78079768 16.40296185 19.02393111 24 29 C23.34 29.33 22.68 29.66 22 30 C21.47792969 29.35675781 20.95585938 28.71351563 20.41796875 28.05078125 C16.01120089 22.64072123 11.56641899 17.26685034 7.0625 11.9375 C6.59030029 11.37780518 6.11810059 10.81811035 5.6315918 10.24145508 C3.81037118 8.09198544 1.99307425 5.99307425 0 4 C0 2.68 0 1.36 0 0 Z " fill="#F9D1DF" transform="translate(882,617)"/>
<path d="M0 0 C0.33 0 0.66 0 1 0 C1.91588141 6.06771437 0.77191792 8.91800434 -2.8125 13.9375 C-6.51286765 18.83762255 -6.51286765 18.83762255 -10 20 C-9.505 18.515 -9.505 18.515 -9 17 C-8.34 17 -7.68 17 -7 17 C-6.91363281 16.443125 -6.82726562 15.88625 -6.73828125 15.3125 C-5.65019107 9.40287263 -3.72151412 4.75886998 0 0 Z " fill="#3C2E8A" transform="translate(913,530)"/>
<path d="M0 0 C0.5775 0.45375 1.155 0.9075 1.75 1.375 C3.86878033 3.04070037 3.86878033 3.04070037 6.0390625 3.828125 C8.60160213 5.35952318 8.84285761 6.5385559 9.625 9.375 C10.31086581 11.78763386 10.95646733 13.91569378 12.109375 16.1484375 C13 18 13 18 12.625 20.25 C12.41875 20.8275 12.2125 21.405 12 22 C9 16.25 9 16.25 9 14 C8.360625 13.814375 7.72125 13.62875 7.0625 13.4375 C6.381875 12.963125 5.70125 12.48875 5 12 C4.66666667 9.66666667 4.33333333 7.33333333 4 5 C2.06402968 3.48705712 2.06402968 3.48705712 0 3 C0 2.01 0 1.02 0 0 Z " fill="#F29AD2" transform="translate(905,387)"/>
<path d="M0 0 C3.90517041 3.32354928 7.76046042 6.68383198 11.5625 10.125 C14.89640012 13.10676757 18.24604139 15.58674089 22 18 C23.875 19.75 23.875 19.75 25 21 C20.9727347 20.38418031 18.0108107 18.22760009 14.75 15.9375 C14.17805908 15.53772949 13.60611816 15.13795898 13.0168457 14.72607422 C8.26749249 11.3312877 3.52265443 7.70396755 0 3 C0 2.01 0 1.02 0 0 Z " fill="#9E95C4" transform="translate(686,519)"/>
<path d="M0 0 C1.5 1.375 1.5 1.375 3 3 C3 3.66 3 4.32 3 5 C3.66 5 4.32 5 5 5 C7.80095653 13.94438786 9.98278933 22.6755689 11 32 C7.39140085 24.94389987 4.86724425 18.07718327 3.50390625 10.265625 C2.82990087 7.23521321 1.48893252 4.70715005 0 2 C0 1.34 0 0.68 0 0 Z " fill="#EE86C9" transform="translate(913,394)"/>
<path d="M0 0 C3.33409072 0 5.38865294 0.44687647 7.88671875 2.70703125 C10.76806585 5.96289307 13.18096862 9.03201488 15 13 C14.01 13.33 13.02 13.66 12 14 C10.18472893 12.04417252 8.37271109 10.08550123 6.5625 8.125 C6.04623047 7.56941406 5.52996094 7.01382813 4.99804688 6.44140625 C1.11328125 2.2265625 1.11328125 2.2265625 0 0 Z " fill="#F6CED7" transform="translate(850,583)"/>
<path d="M0 0 C0.66 0 1.32 0 2 0 C2 0.66 2 1.32 2 2 C2.8971875 2.1546875 2.8971875 2.1546875 3.8125 2.3125 C6 3 6 3 7.4375 4.625 C7.953125 5.07875 8.46875 5.5325 9 6 C11.65466049 5.76956136 11.65466049 5.76956136 14 5 C14.33 6.32 14.66 7.64 15 9 C13.35 9 11.7 9 10 9 C10 9.66 10 10.32 10 11 C8.68 10.67 7.36 10.34 6 10 C6 9.34 6 8.68 6 8 C5.34 8 4.68 8 4 8 C2.68 5.36 1.36 2.72 0 0 Z " fill="#C254AC" transform="translate(671,495)"/>
<path d="M0 0 C1.64767247 0.28109113 3.29313145 0.57518526 4.9375 0.875 C5.85402344 1.03742187 6.77054688 1.19984375 7.71484375 1.3671875 C8.46894531 1.57601562 9.22304688 1.78484375 10 2 C10.33 2.66 10.66 3.32 11 4 C10 6 10 6 8.328125 6.62109375 C5.43791344 7.09148053 2.67727465 7.0943182 -0.25 7.0625 C-1.32765625 7.05347656 -2.4053125 7.04445313 -3.515625 7.03515625 C-4.33546875 7.02355469 -5.1553125 7.01195312 -6 7 C-6 6.67 -6 6.34 -6 6 C-3.69 5.34 -1.38 4.68 1 4 C0.67 2.68 0.34 1.36 0 0 Z " fill="#B356B4" transform="translate(783,547)"/>
<path d="M0 0 C3.60487185 0.5461927 6.58163265 1.67502145 9.890625 3.17578125 C13.4086128 4.55040241 17.07519115 5.36963056 20.7421875 6.25390625 C21.85980469 6.62322266 21.85980469 6.62322266 23 7 C23.33 7.66 23.66 8.32 24 9 C15.23010322 8.96547285 8.42943214 6.68377244 1 2 C0.67 1.34 0.34 0.68 0 0 Z " fill="#BB9FC6" transform="translate(711,540)"/>
<path d="M0 0 C2.08450717 0.2831556 4.16758367 0.57685669 6.25 0.875 C7.99023438 1.11863281 7.99023438 1.11863281 9.765625 1.3671875 C12.58193313 1.91820431 14.55217557 2.55796482 17 4 C17 4.66 17 5.32 17 6 C17.99 6.33 18.98 6.66 20 7 C15.36591879 7.2039277 11.61768468 6.53933921 7.1875 5.1875 C6.04667969 4.85105469 4.90585937 4.51460937 3.73046875 4.16796875 C2.82941406 3.78253906 1.92835938 3.39710938 1 3 C0.67 2.01 0.34 1.02 0 0 Z " fill="#DE99BC" transform="translate(734,546)"/>
<path d="M0 0 C0.66 0 1.32 0 2 0 C2.50615298 1.26839526 3.00469099 2.53983102 3.5 3.8125 C3.91765625 4.87404297 3.91765625 4.87404297 4.34375 5.95703125 C5 8 5 8 5 11 C5.598125 11.268125 6.19625 11.53625 6.8125 11.8125 C9.04593283 13.02493496 10.49938199 13.94652273 12 16 C11.57421875 18.1015625 11.57421875 18.1015625 11 20 C5.17338632 13.58592938 1.00400919 8.74922292 0 0 Z " fill="#F981A4" transform="translate(875,602)"/>
<path d="M0 0 C5.1484402 1.20495409 9.21017924 3.10995383 13.77734375 5.7578125 C16.766715 7.42849802 19.82724498 8.71739691 23 10 C23 10.66 23 11.32 23 12 C18.66695924 11.35534798 15.13327935 9.81074878 11.1875 7.9375 C10.02605469 7.38964844 8.86460937 6.84179688 7.66796875 6.27734375 C6.78753906 5.85582031 5.90710938 5.43429687 5 5 C5 4.34 5 3.68 5 3 C2.525 2.01 2.525 2.01 0 1 C0 0.67 0 0.34 0 0 Z " fill="#18175A" transform="translate(680,579)"/>
<path d="M0 0 C2.29255632 2.29255632 2.31832119 2.91940925 2.6328125 6.02734375 C2.71660156 6.81947266 2.80039062 7.61160156 2.88671875 8.42773438 C2.96535156 9.25595703 3.04398438 10.08417969 3.125 10.9375 C3.21136719 11.76185547 3.29773438 12.58621094 3.38671875 13.43554688 C3.71533435 16.64606915 4 19.76997398 4 23 C3.34 23 2.68 23 2 23 C0.04596958 15.27111181 -0.22428282 7.94957992 0 0 Z " fill="#283565" transform="translate(600,461)"/>
<path d="M0 0 C0.33 0 0.66 0 1 0 C0.2036893 7.69767006 -0.87821267 15.34352921 -2 23 C-2.33 23 -2.66 23 -3 23 C-3.55353075 7.25512528 -3.55353075 7.25512528 0 0 Z " fill="#08A3DF" transform="translate(664,432)"/>
<path d="M0 0 C0.85266832 3.41067329 1.08224523 4.83197818 0.66015625 8.109375 C0.56669922 8.86347656 0.47324219 9.61757813 0.37695312 10.39453125 C0.22129883 11.56048828 0.22129883 11.56048828 0.0625 12.75 C-0.03740234 13.54277344 -0.13730469 14.33554687 -0.24023438 15.15234375 C-0.48692871 17.10240371 -0.7425878 19.05132586 -1 21 C-1.66 21 -2.32 21 -3 21 C-4.50156874 17.99686252 -4.09281204 15.20932478 -4.0625 11.875 C-4.05347656 10.59367187 -4.04445313 9.31234375 -4.03515625 7.9921875 C-4.02355469 7.00476563 -4.01195312 6.01734375 -4 5 C-3.67 5 -3.34 5 -3 5 C-2.67 7.64 -2.34 10.28 -2 13 C-1.34 8.71 -0.68 4.42 0 0 Z " fill="#0F78C0" transform="translate(664,438)"/>
<path d="M0 0 C1.77178053 0.956581 3.54239076 1.91532988 5.3125 2.875 C6.79169922 3.67550781 6.79169922 3.67550781 8.30078125 4.4921875 C11 6 11 6 14 8 C14 8.66 14 9.32 14 10 C8.71500265 9.61329288 4.69959224 7.78112595 1 4 C0.30078125 1.83203125 0.30078125 1.83203125 0 0 Z " fill="#F775B2" transform="translate(706,526)"/>
<path d="M0 0 C4.7707929 0.43370845 8.63364259 2.64334391 12 6 C12 6.99 12 7.98 12 9 C2.99264706 5.65441176 2.99264706 5.65441176 0.6875 1.8125 C0.460625 1.214375 0.23375 0.61625 0 0 Z " fill="#E3E8FD" transform="translate(854,336)"/>
<path d="M0 0 C6.68993219 0.53951066 12.63460728 1.88706171 19 4 C15.68188793 6.05370447 13.83348523 6.10994733 10.0625 5.25 C9.18980469 5.05148437 8.31710937 4.85296875 7.41796875 4.6484375 C4.84386065 3.95812741 2.4166222 3.12775702 0 2 C0 1.34 0 0.68 0 0 Z " fill="#84B4F3" transform="translate(804,315)"/>
<path d="M0 0 C3.63 0 7.26 0 11 0 C11.33 0.99 11.66 1.98 12 3 C10.73392393 3.53229326 9.46189588 4.05044544 8.1875 4.5625 C7.47980469 4.85253906 6.77210938 5.14257812 6.04296875 5.44140625 C4 6 4 6 1 5 C1.66 4.67 2.32 4.34 3 4 C3 3.34 3 2.68 3 2 C2.01 1.34 1.02 0.68 0 0 Z " fill="#764EB1" transform="translate(796,547)"/>
<path d="M0 0 C0.66 0.33 1.32 0.66 2 1 C0.04761147 3.00612399 -1.91137822 5.00492433 -3.875 7 C-4.43058594 7.57234375 -4.98617187 8.1446875 -5.55859375 8.734375 C-7.00134404 10.19450782 -8.4974374 11.60149298 -10 13 C-10.66 13 -11.32 13 -12 13 C-12.28875 13.639375 -12.5775 14.27875 -12.875 14.9375 C-14 17 -14 17 -16 18 C-12.48793278 10.46710816 -6.28139203 5.24512177 0 0 Z " fill="#18308C" transform="translate(697,382)"/>
<path d="M0 0 C1.45880109 0.14107747 2.91703551 0.28802415 4.375 0.4375 C5.59316406 0.55931641 5.59316406 0.55931641 6.8359375 0.68359375 C9 1 9 1 11 2 C11.625 4.5625 11.625 4.5625 12 7 C3.64989059 4.6892779 3.64989059 4.6892779 0.9375 1.8125 C0.628125 1.214375 0.31875 0.61625 0 0 Z " fill="#EAB8BB" transform="translate(706,535)"/>
<path d="M0 0 C1.34173403 0.92543709 2.67320159 1.86577405 4 2.8125 C5.11375 3.59560547 5.11375 3.59560547 6.25 4.39453125 C6.8275 4.92433594 7.405 5.45414062 8 6 C8 6.99 8 7.98 8 9 C4.60807637 8.40716379 2.7892243 7.23256811 0.25 4.9375 C-0.36359375 4.38964844 -0.9771875 3.84179688 -1.609375 3.27734375 C-2.06828125 2.85582031 -2.5271875 2.43429687 -3 2 C-2.01 1.34 -1.02 0.68 0 0 Z " fill="#DAD9F9" transform="translate(879,353)"/>
<path d="M0 0 C2.33528415 0.17298401 3.69177582 0.70225369 5.37890625 2.33203125 C9 6.57211538 9 6.57211538 9 9 C6.66471585 8.82701599 5.30822418 8.29774631 3.62109375 6.66796875 C0 2.42788462 0 2.42788462 0 0 Z " fill="#FAEAEF" transform="translate(863,596)"/>
<path d="M0 0 C3.06650539 -0.14262816 5.44277243 -0.22590307 8.3125 0.9375 C12.1192484 2.44249356 15.94357246 2.66417376 20 3 C20 3.33 20 3.66 20 4 C17.72923158 4.02699725 15.45837179 4.04639453 13.1875 4.0625 C11.29064453 4.07990234 11.29064453 4.07990234 9.35546875 4.09765625 C6 4 6 4 3 3 C3 2.34 3 1.68 3 1 C2.01 0.67 1.02 0.34 0 0 Z " fill="#E580B4" transform="translate(748,549)"/>
<path d="M0 0 C4.05091266 6.07636898 5.34715952 12.81875469 6 20 C3.1270453 18.56352265 2.70911879 16.37949664 1.6640625 13.4765625 C0.47953492 9.05897142 0.24270843 4.55287533 0 0 Z " fill="#F472BB" transform="translate(920,405)"/>
<path d="M0 0 C1.44150403 4.32451208 -0.20266625 6.96580983 -2 11 C-3.5625 14 -3.5625 14 -5 16 C-5.66 16 -6.32 16 -7 16 C-6.71253906 15.28328125 -6.42507813 14.5665625 -6.12890625 13.828125 C-5.40211316 12.00736999 -4.68035136 10.1845944 -3.96484375 8.359375 C-3.62582031 7.49828125 -3.28679688 6.6371875 -2.9375 5.75 C-2.42509766 4.44289063 -2.42509766 4.44289063 -1.90234375 3.109375 C-1 1 -1 1 0 0 Z " fill="#3E2F92" transform="translate(921,514)"/>
<path d="M0 0 C0.99 0 1.98 0 3 0 C3 5.28 3 10.56 3 16 C2.67 16 2.34 16 2 16 C1.66104344 14.27192682 1.32908475 12.54248026 1 10.8125 C0.814375 9.84957031 0.62875 8.88664062 0.4375 7.89453125 C0.03122388 5.2065794 -0.07933572 2.71228981 0 0 Z " fill="#DA72BF" transform="translate(924,424)"/>
<path d="M0 0 C2.94751667 2.74423966 5.22773678 5.36219655 7 9 C6.67 9.99 6.34 10.98 6 12 C1.125 8.375 1.125 8.375 0 5 C0.66 5 1.32 5 2 5 C1.34 3.35 0.68 1.7 0 0 Z " fill="#E9BAE4" transform="translate(903,379)"/>
<path d="M0 0 C-3.7367843 2.49118953 -5.74451819 2.2065226 -10.1875 2.125 C-11.45980469 2.10695313 -12.73210938 2.08890625 -14.04296875 2.0703125 C-15.50669922 2.03550781 -15.50669922 2.03550781 -17 2 C-17 1.67 -17 1.34 -17 1 C-14.91835982 0.63601378 -12.83459438 0.28416713 -10.75 -0.0625 C-9.00976562 -0.35833984 -9.00976562 -0.35833984 -7.234375 -0.66015625 C-4.37477376 -0.9606216 -2.66674071 -0.9439206 0 0 Z " fill="#C96BB7" transform="translate(780,552)"/>
<path d="M0 0 C1.55403686 2.93163286 2.69801632 5.83365224 3.6875 9 C3.95949219 9.845625 4.23148438 10.69125 4.51171875 11.5625 C5.02468085 14.1232068 4.84216387 15.55828998 4 18 C3.13007846 15.94409546 2.27962311 13.87994664 1.4375 11.8125 C0.96183594 10.66394531 0.48617187 9.51539063 -0.00390625 8.33203125 C-1.01536316 4.94860873 -1.04283184 3.31583059 0 0 Z " fill="#5971BD" transform="translate(664,476)"/>
<path d="M0 0 C0.66 0.33 1.32 0.66 2 1 C2 4.3 2 7.6 2 11 C1.34 11 0.68 11 0 11 C-2.21538462 4.6 -2.21538462 4.6 -1.125 1.5625 C-0.75375 1.046875 -0.3825 0.53125 0 0 Z " fill="#473396" transform="translate(670,464)"/>
<path d="M0 0 C1.34990354 0.97751635 2.68036291 1.98199424 4 3 C4.556875 3.391875 5.11375 3.78375 5.6875 4.1875 C7.84775626 7.17071103 7.70279744 10.37412878 8 14 C7.01 13.34 6.02 12.68 5 12 C4.855625 10.845 4.71125 9.69 4.5625 8.5 C4.376875 7.345 4.19125 6.19 4 5 C2.06402968 3.48705712 2.06402968 3.48705712 0 3 C0 2.01 0 1.02 0 0 Z " fill="#A39CDA" transform="translate(905,387)"/>
<path d="M0 0 C0.99 0 1.98 0 3 0 C1.51131293 4.60139641 -0.74629855 7.50227094 -4 11 C-4.66 11 -5.32 11 -6 11 C-5.67 10.01 -5.34 9.02 -5 8 C-4.34 8 -3.68 8 -3 8 C-2.87625 7.21625 -2.7525 6.4325 -2.625 5.625 C-2 3 -2 3 0 1 C0 0.67 0 0.34 0 0 Z " fill="#2C3496" transform="translate(909,539)"/>
<path d="M0 0 C0.66 0 1.32 0 2 0 C4.27678571 8.03571429 4.27678571 8.03571429 3 12 C3 11.01 3 10.02 3 9 C2.01 9.33 1.02 9.66 0 10 C-0.74926071 6.33694766 -1.2380014 3.57644848 0 0 Z " fill="#8F64BF" transform="translate(932,430)"/>
<path d="M0 0 C0.6875 1.75 0.6875 1.75 1 4 C-0.4375 6.25 -0.4375 6.25 -2 8 C-2 7.34 -2 6.68 -2 6 C-3.98 6.99 -3.98 6.99 -6 8 C-4.73058503 4.08597051 -3.48832306 2.20927127 0 0 Z " fill="#C73D7E" transform="translate(914,524)"/>
<path d="M0 0 C0.33 0.66 0.66 1.32 1 2 C1.66 2 2.32 2 3 2 C3 4.31 3 6.62 3 9 C1.35 7.68 -0.3 6.36 -2 5 C-1.125 1.125 -1.125 1.125 0 0 Z " fill="#76369D" transform="translate(668,474)"/>
<path d="M0 0 C1.65 0.33 3.3 0.66 5 1 C4.67 1.99 4.34 2.98 4 4 C1.36 4.33 -1.28 4.66 -4 5 C-2.68 3.35 -1.36 1.7 0 0 Z " fill="#A653B6" transform="translate(789,549)"/>
<path d="M0 0 C2.1464753 0.11344376 4.29220592 0.24106345 6.4375 0.375 C8.22994141 0.47941406 8.22994141 0.47941406 10.05859375 0.5859375 C11.02925781 0.72257813 11.99992188 0.85921875 13 1 C13.33 1.66 13.66 2.32 14 3 C8.87160006 4.81975482 4.82315618 2.8599099 0 1 C0 0.67 0 0.34 0 0 Z " fill="#9F8BC0" transform="translate(727,548)"/>
<path d="M0 0 C2.1875 0.3125 2.1875 0.3125 4 1 C1.03 3.475 1.03 3.475 -2 6 C-3.32 5.34 -4.64 4.68 -6 4 C-5.01 3.67 -4.02 3.34 -3 3 C-2.525625 2.46375 -2.05125 1.9275 -1.5625 1.375 C-0.7890625 0.694375 -0.7890625 0.694375 0 0 Z " fill="#524BA5" transform="translate(815,537)"/>
<path d="M0 0 C4.05281712 1.22527029 7.44360764 2.69880494 11 5 C10.67 5.66 10.34 6.32 10 7 C5.56541027 5.6062718 3.12621626 3.39417765 0 0 Z " fill="#ED73B2" transform="translate(685,514)"/>
<path d="M0 0 C0.33 0 0.66 0 1 0 C0.88490339 1.41750563 0.75746342 2.83401169 0.625 4.25 C0.55539062 5.03890625 0.48578125 5.8278125 0.4140625 6.640625 C-0.01507113 9.085877 -0.78600638 10.84836903 -2 13 C-3.25 11 -3.25 11 -4 8 C-2.97703944 5.14731103 -1.55754223 2.59375835 0 0 Z " fill="#993D8C" transform="translate(923,501)"/>
<path d="M0 0 C0.99 0.33 1.98 0.66 3 1 C4.23593891 4.70781672 3.5678132 5.67510253 2.0625 9.1875 C1.68222656 10.08855469 1.30195312 10.98960937 0.91015625 11.91796875 C0.45962891 12.94857422 0.45962891 12.94857422 0 14 C-1.03115279 10.73086376 -0.9638984 8.13958652 -0.5625 4.75 C-0.46066406 3.85796875 -0.35882812 2.9659375 -0.25390625 2.046875 C-0.17011719 1.37140625 -0.08632813 0.6959375 0 0 Z " fill="#3E3197" transform="translate(923,500)"/>
<path d="M0 0 C3.33557632 2.9905167 5.15083921 5.93184627 7 10 C6.34 10 5.68 10 5 10 C4.34 9.01 3.68 8.02 3 7 C2.01 7.495 2.01 7.495 1 8 C-0.35439668 5.29120665 -0.06501451 2.99066732 0 0 Z " fill="#9A44A4" transform="translate(669,486)"/>
<path d="M0 0 C4.52048157 3.13922331 6.51545911 6.21495828 9 11 C7 11 7 11 5.2734375 9.35546875 C4.64695312 8.64003906 4.02046875 7.92460938 3.375 7.1875 C2.74335937 6.47980469 2.11171875 5.77210938 1.4609375 5.04296875 C0 3 0 3 0 0 Z " fill="#F7BDD4" transform="translate(897,636)"/>
<path d="M0 0 C1.65 1.65 3.3 3.3 5 5 C4.01 6.32 3.02 7.64 2 9 C0.14223235 5.86501708 -0.20140476 3.62528568 0 0 Z " fill="#F26A9F" transform="translate(872,593)"/>
<path d="M0 0 C4.51478398 0.53115106 7.34666857 2.36620292 11 5 C10.01 5.495 10.01 5.495 9 6 C7.08984375 5.29296875 7.08984375 5.29296875 4.9375 4.1875 C4.22464844 3.83042969 3.51179687 3.47335937 2.77734375 3.10546875 C1 2 1 2 0 0 Z " fill="#AA97C2" transform="translate(711,540)"/>
<path d="M0 0 C-0.33 1.65 -0.66 3.3 -1 5 C-2.32 5.33 -3.64 5.66 -5 6 C-5 4.68 -5 3.36 -5 2 C-2 0 -2 0 0 0 Z " fill="#DC3E77" transform="translate(912,530)"/>
<path d="M0 0 C4.875 4.625 4.875 4.625 6 8 C4.125 7.6875 4.125 7.6875 2 7 C0 4 0 4 0 0 Z " fill="#DAD9F9" transform="translate(899,376)"/>
<path d="M0 0 C1.65 1.65 3.3 3.3 5 5 C2.69 5.33 0.38 5.66 -2 6 C-2.33 5.34 -2.66 4.68 -3 4 C-2.34 3.67 -1.68 3.34 -1 3 C-0.67 2.01 -0.34 1.02 0 0 Z " fill="#F27EBF" transform="translate(696,516)"/>
<path d="M0 0 C0.66 0 1.32 0 2 0 C0.48328036 4.55015893 -3.16891053 6.50057264 -7 9 C-5.59257936 5.48144841 -4.33533477 4.61387166 -1 3 C-0.67 2.01 -0.34 1.02 0 0 Z " fill="#76478E" transform="translate(892,560)"/>
<path d="M0 0 C0.66 0 1.32 0 2 0 C2 0.66 2 1.32 2 2 C2.969375 2.28875 3.93875 2.5775 4.9375 2.875 C8 4 8 4 9 6 C6.69 5.67 4.38 5.34 2 5 C1.34 3.35 0.68 1.7 0 0 Z " fill="#F4B3B5" transform="translate(704,530)"/>
<path d="M0 0 C2.3125 0.1875 2.3125 0.1875 5 1 C6.8125 3.5625 6.8125 3.5625 8 6 C5 6 5 6 3.61328125 4.6875 C2.40885417 3.125 1.20442708 1.5625 0 0 Z " fill="#E6CBE0" transform="translate(850,583)"/>
<path d="M0 0 C0.33 0.66 0.66 1.32 1 2 C0 5 0 5 -2 6 C-2.65213292 8.02463255 -2.65213292 8.02463255 -3 10 C-3.99 10 -4.98 10 -6 10 C-4.6302836 6.00499382 -2.74277578 3.19990508 0 0 Z " fill="#5A2B88" transform="translate(906,542)"/>
<path d="M0 0 C0.33 0 0.66 0 1 0 C0.125 6.75 0.125 6.75 -1 9 C-1.66 9 -2.32 9 -3 9 C-2.5020163 5.26512223 -2.12508244 3.18762365 0 0 Z " fill="#C94286" transform="translate(920,510)"/>
<path d="M0 0 C7.42857143 -0.28571429 7.42857143 -0.28571429 11 2 C4.6 3.23076923 4.6 3.23076923 1.5625 2.0625 C1.046875 1.711875 0.53125 1.36125 0 1 C0 0.67 0 0.34 0 0 Z " fill="#9BC4F8" transform="translate(812,318)"/>
<path d="M0 0 C0.66 0.33 1.32 0.66 2 1 C0.375 3.0625 0.375 3.0625 -2 5 C-5.25 4.75 -5.25 4.75 -8 4 C-6.66666667 3.33333333 -5.33333333 2.66666667 -4 2 C-3.29875 1.608125 -2.5975 1.21625 -1.875 0.8125 C-1.25625 0.544375 -0.6375 0.27625 0 0 Z " fill="#675FAE" transform="translate(811,539)"/>
<path d="M0 0 C0.93045933 2.55144824 1.08564091 3.74006478 0.22265625 6.359375 C-0.16019531 7.14828125 -0.54304687 7.9371875 -0.9375 8.75 C-1.50791016 9.94882812 -1.50791016 9.94882812 -2.08984375 11.171875 C-2.39019531 11.77515625 -2.69054687 12.3784375 -3 13 C-3.93045933 10.44855176 -4.08564091 9.25993522 -3.22265625 6.640625 C-2.83980469 5.85171875 -2.45695313 5.0628125 -2.0625 4.25 C-1.68222656 3.45078125 -1.30195312 2.6515625 -0.91015625 1.828125 C-0.60980469 1.22484375 -0.30945313 0.6215625 0 0 Z " fill="#2B2C85" transform="translate(868,482)"/>
<path d="M0 0 C0.33 0.66 0.66 1.32 1 2 C0.22265625 3.7265625 0.22265625 3.7265625 -0.9375 5.625 C-1.618125 6.73875 -2.29875 7.8525 -3 9 C-3.66 8.67 -4.32 8.34 -5 8 C-3.8141763 4.62496331 -2.72426311 2.35277269 0 0 Z " fill="#1950B7" transform="translate(677,403)"/>
<path d="M0 0 C2.64 0.33 5.28 0.66 8 1 C8.33 2.65 8.66 4.3 9 6 C2.25 2.25 2.25 2.25 0 0 Z " fill="#F794B0" transform="translate(851,582)"/>
<path d="M0 0 C3.35111834 2.23407889 4.81553956 3.26215824 5.8125 7.25 C5.874375 8.1575 5.93625 9.065 6 10 C3.61405803 8.80702902 3.16265153 7.85642735 1.875 5.5625 C1.52179687 4.94503906 1.16859375 4.32757812 0.8046875 3.69140625 C0 2 0 2 0 0 Z " fill="#D19DC0" transform="translate(680,509)"/>
<path d="M0 0 C0 0.66 0 1.32 0 2 C-1.8125 2.6875 -1.8125 2.6875 -4 3 C-5.75 1.5625 -5.75 1.5625 -7 0 C-3.86650268 -1.04449911 -3.01031744 -0.93423645 0 0 Z " fill="#B341A8" transform="translate(684,499)"/>
<path d="M0 0 C2.32472205 2.85306797 3.7508258 5.54074837 5 9 C4.01 9.495 4.01 9.495 3 10 C0.96564469 6.27034861 0 4.33094958 0 0 Z " fill="#817FC5" transform="translate(669,492)"/>
<path d="M0 0 C1.90401138 1.90401138 2.93520439 3.33425686 3.19921875 6.046875 C3.1886578 8.03233273 3.09915043 10.0169914 3 12 C2.67 12 2.34 12 2 12 C0.40861915 7.82262526 -0.21278058 4.46839215 0 0 Z " fill="#DE57A7" transform="translate(928,435)"/>
<path d="M0 0 C-0.33 0.99 -0.66 1.98 -1 3 C-3.97 3 -6.94 3 -10 3 C-10 2.67 -10 2.34 -10 2 C-3.375 0 -3.375 0 0 0 Z " fill="#6146AB" transform="translate(807,544)"/>
<path d="M0 0 C0.99 0 1.98 0 3 0 C3 0.66 3 1.32 3 2 C3.61875 2.12375 4.2375 2.2475 4.875 2.375 C7 3 7 3 9 5 C3.46153846 4.50769231 3.46153846 4.50769231 1.125 1.9375 C0.75375 1.298125 0.3825 0.65875 0 0 Z " fill="#D4B4C2" transform="translate(706,535)"/>
<path d="M0 0 C1.32 0 2.64 0 4 0 C4.66 1.98 5.32 3.96 6 6 C3.37812506 4.95125002 2.20628639 4.35068687 0.75 1.875 C0.5025 1.25625 0.255 0.6375 0 0 Z " fill="#EABFC5" transform="translate(695,526)"/>
<path d="M0 0 C3.53600465 1.91135386 5.78972846 3.62642766 8 7 C6.68 6.67 5.36 6.34 4 6 C4 5.34 4 4.68 4 4 C3.34 4 2.68 4 2 4 C2 3.34 2 2.68 2 2 C1.34 2 0.68 2 0 2 C0 1.34 0 0.68 0 0 Z " fill="#F8B2BE" transform="translate(690,519)"/>
</svg>
